<?xml version="1.0" encoding="utf-8"?>
<!-- Generator: Adobe Illustrator 18.0.0, SVG Export Plug-In . SVG Version: 6.00 Build 0)  -->
<!DOCTYPE svg PUBLIC "-//W3C//DTD SVG 1.1//EN" "http://www.w3.org/Graphics/SVG/1.1/DTD/svg11.dtd">
<svg version="1.1" xmlns="http://www.w3.org/2000/svg" xmlns:xlink="http://www.w3.org/1999/xlink" x="0px" y="0px"
	 viewBox="0 0 1728 1440" enable-background="new 0 0 1728 1440" xml:space="preserve">
<g id="circle">
	<circle fill="#01CED1" cx="864" cy="720" r="592.7"/>
</g>
<g id="storage" display="none">
	
		<rect x="501.8" y="497" display="inline" fill="none" stroke="#FFFFFF" stroke-width="16" stroke-miterlimit="10" width="722.5" height="512.7"/>
	
		<line display="inline" fill="none" stroke="#FFFFFF" stroke-width="16" stroke-miterlimit="10" x1="539" y1="463.8" x2="1187" y2="463.8"/>
	
		<line display="inline" fill="none" stroke="#FFFFFF" stroke-width="16" stroke-miterlimit="10" x1="580.9" y1="430.1" x2="1157" y2="430.1"/>
</g>
<g id="deals">
	<g>
		<g>
			<path fill="#FFFFFF" d="M1055.1,473.8c-0.6-25.8-13.5-49.4-32.6-66.4c-21.2-18.9-48.9-27.5-76.7-30
				c-51.5-4.6-104.8,11.9-148,39.4c-21.2,13.5-40.5,30.2-56.9,49.3c-16.1,18.7-30.2,40-38.6,63.3c-7.8,21.8-10.3,46.9-0.1,68.3
				c11.8,24.9,39.6,31.6,64.6,34.1c49.2,4.8,98.5,6.9,147.1,16.5c45.7,9.1,91.3,25.1,126.2,57c37.2,34,55.4,82.6,55.7,132.5
				c0.2,50.9-19.3,99.6-51.6,138.6c-32.5,39.1-76.3,68.3-123.7,86.2c-50.9,19.3-108.2,25.7-161.1,10.5c-41.7-12-76.4-38.9-97.5-76.9
				c-19.1-34.4-25.2-77.7-8.8-114.3c1.7-3.7,1.1-8-2.7-10.3c-3.2-1.9-8.6-1-10.3,2.7c-19.5,43.4-12.5,92.6,10.8,133.1
				c25.5,44.2,69.2,72.8,118.5,83.8c53.9,11.9,111.3,3.4,162.1-16.9c47.6-19,91.3-48.9,124.1-88.4c33-39.8,52.9-88.6,54.9-140.4
				c1.9-50.9-14.6-101.8-49-139.7c-32.1-35.4-76.9-55.5-122.5-67.1c-48.1-12.2-98-15.8-147.3-19.8c-23.6-1.9-53.4-0.7-70.8-19.6
				c-15.1-16.4-11.8-42.5-5.7-61.8c7.1-22.9,21.6-43.8,37.1-61.8c16.3-18.9,35.5-35.1,56.7-48.2c39-24.2,85.4-37.6,131.4-35.3
				c24.5,1.2,49.7,8.3,69,24c17.4,14.2,29.9,35,30.5,57.8C1040.4,483.5,1055.4,483.5,1055.1,473.8L1055.1,473.8z"/>
		</g>
	</g>
	<g>
		<g>
			<path fill="#FFFFFF" d="M822.7,306.6c2.8,133.2,6.3,266.3,10.7,399.5c4.4,133.1,9.6,266.2,15.6,399.3c0.9,20,1.8,39.9,2.8,59.9
				c0.5,9.6,15.5,9.7,15,0c-6.3-133.1-11.7-266.2-16.4-399.3S842,499.7,839,366.5c-0.5-20-0.9-40-1.3-59.9
				C837.5,296.9,822.5,296.9,822.7,306.6L822.7,306.6z"/>
		</g>
	</g>
	<g>
		<g>
			<path fill="#FFFFFF" d="M913.7,300.4c6.9,132.7,11.8,265.4,14.7,398.3c2.8,132.8,3.5,265.7,2.2,398.5
				c-0.2,18.6-0.4,37.2-0.7,55.8c-0.1,9.7,14.9,9.7,15,0c1.9-132.8,1.7-265.7-0.5-398.5c-2.2-132.8-6.5-265.6-12.9-398.3
				c-0.9-18.6-1.8-37.2-2.8-55.7C928.2,290.7,913.2,290.7,913.7,300.4L913.7,300.4z"/>
		</g>
	</g>
</g>
<g id="shopping" display="none">
	<g display="inline">
		<g>
			<path fill="#FFFFFF" d="M362.2,1108.2c28-9.2,50.6-28.3,70.1-49.8c20.4-22.5,38.6-47.3,56.6-71.7c37-50.1,71-102.3,102-156.2
				c62.1-107.8,111.9-222.8,148.5-341.8c9.1-29.7,17.4-59.7,24.8-90c3.6-14.8,6.8-29.7,10.3-44.6c1-4.4,2.5-10.4,6.4-13.2
				c2.6-1.9,6.1-0.9,9-0.2c4.7,1.1,9.3,2.5,14,3.7c67.6,17.7,136,32.2,204.9,43.6c34.4,5.7,69,10.6,103.6,14.7
				c17.3,2.1,34.7,3.9,52.1,5.6c8.3,0.8,16.7,1.6,25,2.3c7.5,0.6,15.1,0.7,22.4,2.6c6.5,1.7,8.6,5.5,8.1,12
				c-0.6,8-3.6,16.4-5.4,24.2c-3.7,16-7.5,31.9-11.4,47.8c-7.8,31.8-16.1,63.5-24.9,95c-35,126.3-77.4,250.4-126.8,371.8
				c-49.3,121.4-105.9,239.8-169,354.6c-17,31-34.6,61.7-52.6,92.2c-4.9,8.3,8,15.9,13,7.6c66.7-112.8,126.8-229.4,180.1-349.1
				c53.2-119.7,99.6-242.5,138.7-367.5c19.6-62.5,37.3-125.6,53.2-189.1c4-15.9,7.8-31.8,11.6-47.7c1.8-7.7,3.6-15.3,5.3-23
				c1.8-7.8,4.4-16,3.1-24c-2.4-14.9-16.7-19.5-29.8-21c-16.9-2-34-2.9-51-4.6c-69.5-7-138.7-17.3-207.3-30.7
				c-34.3-6.7-68.4-14.2-102.3-22.4c-16.9-4.1-33.7-8.5-50.6-12.9c-7.1-1.8-14.1-2-20.5,1.7c-5.7,3.2-8.9,9.4-11.2,15.3
				c-2.4,5.9-3.4,12.5-4.7,18.7c-1.8,7.9-3.6,15.8-5.5,23.6c-3.6,15.1-7.5,30.2-11.5,45.2c-8.1,30-17.1,59.8-26.9,89.4
				c-19.6,59-42.5,116.9-68.7,173.4c-52.3,112.9-117.3,220-193.7,318.1c-25.1,32.3-52.6,68.7-93,82
				C349,1096.7,352.9,1111.2,362.2,1108.2L362.2,1108.2z"/>
		</g>
	</g>
	<g display="inline">
		<g>
			<path fill="#FFFFFF" d="M805.4,519.9c43.6,9,87,18.4,130.8,26.6c43.3,8.1,87.3,14.2,131.5,13.2c9.7-0.2,9.7-15.2,0-15
				c-43.6,1.1-86.7-5-129.5-13c-43.1-8.1-85.9-17.4-128.8-26.3C800,503.5,795.9,517.9,805.4,519.9L805.4,519.9z"/>
		</g>
	</g>
	<g display="inline">
		<g>
			<path fill="#FFFFFF" d="M759.9,642.7c102.8,30.3,209.8,46.4,316.9,47.8c9.7,0.1,9.7-14.9,0-15c-105.9-1.4-211.3-17.3-313-47.2
				C754.6,625.5,750.7,640,759.9,642.7L759.9,642.7z"/>
		</g>
	</g>
	<g display="inline">
		<g>
			<path fill="#FFFFFF" d="M713.9,778c98.9,30.5,198.3,59,298.3,85.7c9.4,2.5,13.3-12,4-14.5c-100-26.7-199.4-55.3-298.3-85.7
				C708.6,760.6,704.7,775.1,713.9,778L713.9,778z"/>
		</g>
	</g>
	<g display="inline">
		<g>
			<path fill="#FFFFFF" d="M635.1,924.2c96.7,44.8,203.2,66.9,309.7,63.8c9.7-0.3,9.7-15.3,0-15c-103.8,3-207.9-18.1-302.2-61.8
				C633.9,907.2,626.3,920.1,635.1,924.2L635.1,924.2z"/>
		</g>
	</g>
	<g display="inline">
		<g>
			<path fill="#FFFFFF" d="M559.1,1061.6c88.5,60.2,198.7,68.2,297.3,103.5c9.1,3.3,13-11.2,4-14.5c-97.3-34.9-206.3-42.7-293.7-102
				C558.6,1043.2,551.1,1056.2,559.1,1061.6L559.1,1061.6z"/>
		</g>
	</g>
</g>
<g id="guides">
</g>
</svg>
