<?xml version="1.0" encoding="utf-8"?>
<!-- Generator: Adobe Illustrator 18.0.0, SVG Export Plug-In . SVG Version: 6.00 Build 0)  -->
<!DOCTYPE svg PUBLIC "-//W3C//DTD SVG 1.1//EN" "http://www.w3.org/Graphics/SVG/1.1/DTD/svg11.dtd">
<svg version="1.1" xmlns="http://www.w3.org/2000/svg" xmlns:xlink="http://www.w3.org/1999/xlink" x="0px" y="0px"
	 viewBox="0 0 7200 1728" enable-background="new 0 0 7200 1728" xml:space="preserve">
<g id="Layer_1" display="none">
	<rect display="inline" fill="#81459B" width="7200" height="1728"/>
</g>
<g id="Layer_2">
	<polygon fill="none" stroke="#FFFFFF" stroke-width="40" stroke-miterlimit="10" points="3735,1517.1 3045.4,1517.1 2993.3,1080.1 
		3767.1,1080.1 	"/>
	<g>
		<g>
			<path fill="#FFFFFF" d="M3419.2,1240.4c-32.5,4.2-67.9,16.9-80.7,50c-10.1,26.1,2.9,62.9,32.2,69.2c6.7,1.4,13.5-1.9,15.4-8.7
				c1.7-6.3-2.1-14-8.7-15.4c-1.1-0.2-2.2-0.5-3.3-0.9c-3.4-1,2,1.1-1.1-0.4c-1-0.5-1.9-1.1-2.8-1.7c-1.2-0.8-1.2-0.8-0.1,0
				c-0.6-0.5-1.1-1-1.6-1.5c-0.8-0.7-1.5-1.6-2.2-2.4c1.8,2-0.5-0.7-0.7-1c-0.6-0.9-1.2-1.9-1.7-2.9c-0.4-0.7-0.7-1.3-1-2
				c0.5,1.2,0.5,1.2,0-0.2c-3.7-9.8-3.4-16.9,0.3-26.6c-0.9,2.4,0.6-1,0.7-1.2c0.6-1.1,1.3-2.2,2-3.2c1.6-2.4,3-3.9,5.3-6.3
				c4-4.1,8.1-6.7,13.7-9.7c9.7-5.2,24.1-8.8,34.5-10.2c6.8-0.9,12.5-5,12.5-12.5C3431.7,1246.7,3426,1239.5,3419.2,1240.4
				L3419.2,1240.4z"/>
		</g>
	</g>
	<g>
		<g>
			<path fill="#FFFFFF" d="M3403.5,1257.6c-26.8,4.3-55.4,14.6-69.1,39.9c-6.5,12.1-8.6,26-5.7,39.4c3.2,14.4,14.5,24.8,27,31.5
				c24.9,13.5,59.2,27,83.3,5.1c18-16.3,18.7-46.4,3-64.2c-7.8-8.8-19.4-13.7-29.7-19c-2.4-1.2-4.9-2.5-7.2-3.9
				c-1-0.6-1.9-1.2-2.9-1.8c-0.6-0.4-1.2-0.8-1.8-1.3c1.1,0.9,1.1,0.8,0-0.1c-0.8-0.7-1.5-1.4-2.3-2.2c-0.9-1.1-0.9-1,0,0.2
				c-0.4-0.5-0.8-1.1-1.1-1.7c-0.3-0.4-1.6-3.4-0.5-0.7c-0.2-0.6-1.1-4.8-0.7-1.9c-0.9-7.1-7.5-15.5-15.8-12.1
				c-18.3,7.6-34.5,25.3-28.9,46.5c4.6,17.7,28.3,29.9,44.2,18.5c-5.7-1.5-11.4-3-17.1-4.5c2.9,4.6,5.8,9.2,8.8,13.8
				c3.6,5.7,11.1,8,17.1,4.5c5.7-3.3,8.1-11.3,4.5-17.1c-2.9-4.6-5.8-9.2-8.8-13.8c-3.4-5.3-11.4-8.6-17.1-4.5
				c-0.6,0.5-1.3,0.9-1.9,1.3c2.3-1.4-2,0,1-0.3c-3.3,0.3,2.2,0.7-1.1,0c-3.3-0.7,1.8,1.1-1.3-0.4c-0.7-0.4-1.4-0.8-2-1.2
				c2,1.3-0.9-1-1.1-1.2c1.6,1.6-0.6-1.1-0.8-1.3c1.2,2-0.3-1-0.4-1.4c0.1,1.4,0.2,1.3,0.1-0.4c-0.1-3.5-0.5,1.2,0.3-2.2
				c0.4-1.5,1.4-3.5,3-5.7c1.4-2,6.3-5.4,8.4-6.3c-5.3-4-10.5-8-15.8-12.1c1.6,12.6,7.7,21.2,17.9,28.5c8,5.8,17.5,9.3,26.1,14.2
				c2.1,1.2,4,2.5,6,3.9c-2-1.5,0.9,0.8,1.1,1c0.9,0.8,1.7,1.6,2.4,2.4c2.5,2.6-1.1-1.8,0.9,1.2c0.6,1,1.2,2,1.7,3
				c-1.2-2.3,0.3,1,0.4,1.3c0.5,1.5,0.8,3,1,4.5c-0.5-2.8-0.1,1-0.1,1.3c0,1.2,0,2.3-0.1,3.5c-0.2,3.8,0.5-2.4-0.2,1.3
				c-0.2,1.2-0.6,2.3-0.9,3.4c-0.9,3.1-3.1,6.6-5.8,9.2c-2.6,2.5,1.9-1.2-1.1,0.9c-0.9,0.7-2,1.2-3,1.8c-1.3,0.7-3.6,1.4-5.8,1.6
				c-7.1,0.8-14-1.1-20.7-3.4c-6.2-2.1-12.1-4.9-18-7.7c-6-2.9-11.6-5.9-16.2-10.9c0.6,0.7-1.6-2.4-1.4-2.1c0.1,0.1-1.8-3.8-1.1-1.9
				c-0.5-1.3-0.8-2.6-1.2-3.9c0,0-0.6-4.2-0.4-2.1c-0.6-6.1,0.2-9.7,2.5-15.9c1.2-3.4,4.5-8.1,7.4-11.1c4.4-4.6,9.8-7.8,15.5-10.6
				c9.8-4.9,21.4-7.1,32.3-8.9c6.7-1.1,10.4-9.4,8.7-15.4C3416.9,1259.3,3410.2,1256.5,3403.5,1257.6L3403.5,1257.6z"/>
		</g>
	</g>
	<g>
		<g>
			<path fill="#FFFFFF" d="M3248.6,1080.4c-14.2-25.4-23.4-53.8-25.9-82.7c-1.1-13.1,0.4-26.5,5.9-37.5
				c5.4-10.7,13.1-18.9,22.7-26.6c20.4-16.3,49.4-22.6,75.3-25.9c31.8-4,63.8-6.4,95.7-9.5c13.2-1.3,26.4-2.7,39.6-3.7
				c12.3-0.9,24.6-1,36.5,2.4c20.1,5.8,31.5,24,40.2,42.3c10.3,21.7,18.1,47.3,23.5,71.6c5.6,25.4,7.8,52.1,3.4,77.8
				c-1.1,6.7,1.7,13.4,8.7,15.4c6.1,1.7,14.2-2,15.4-8.7c5.4-31.7,2.9-63.5-4.2-94.7c-6.4-27.9-15.7-56.6-29.2-81.9
				c-12.9-24.3-33.4-43.5-61.1-48.1c-15.1-2.5-30.2-1.4-45.3,0.1c-16.3,1.6-32.5,3.2-48.8,4.7c-31.9,3.1-64.1,5-95.6,10.6
				c-28.4,5-55.6,15.4-77.3,34.9c-21.6,19.4-32.1,46.2-30.4,75c1.8,31,11.2,61.7,25.2,89.3c1.4,2.7,2.8,5.3,4.3,7.9
				C3234.9,1107,3256.5,1094.4,3248.6,1080.4L3248.6,1080.4z"/>
		</g>
	</g>
	<g>
		<g>
			<path fill="#FFFFFF" d="M3277.4,852.2c7.9,9.4,15.8,18.9,23.8,28.3c4.4,5.2,13.2,4.5,17.7,0c5.1-5.1,4.4-12.5,0-17.7
				c-7.9-9.4-15.8-18.9-23.8-28.3c-4.4-5.2-13.2-4.5-17.7,0C3272.2,839.7,3273,847,3277.4,852.2L3277.4,852.2z"/>
		</g>
	</g>
	<g>
		<g>
			<path fill="#FFFFFF" d="M3402.6,812.2c-2.3,15.9-1.8,31.5,2.4,47c4.3,15.5,28.4,8.9,24.1-6.6c-3-10.9-4.1-22.5-2.4-33.7
				c1-6.7-1.6-13.4-8.7-15.4C3412,801.9,3403.6,805.5,3402.6,812.2L3402.6,812.2z"/>
		</g>
	</g>
	<g>
		<g>
			<path fill="#FFFFFF" d="M3466.4,824.2c-3,9.3-5.9,18.5-8.9,27.8c-4.9,15.4,19.2,21.9,24.1,6.6c3-9.3,5.9-18.5,8.9-27.8
				C3495.4,815.5,3471.3,808.9,3466.4,824.2L3466.4,824.2z"/>
		</g>
	</g>
	<g>
		<g>
			<path fill="#FFFFFF" d="M3334.1,959.4c-13.4,0-26.9-0.1-40.3-0.1c-4.3,0-8.7,2.4-10.8,6.2c-6.7,12-12.1,24.7-16.3,37.9
				c-2.1,6.6-3.8,13.4-4.6,20.3c-0.9,8.3,4.1,15.2,10.4,19.9c4.7,3.4,11.5,4.2,17.1,4.7c7.3,0.6,14.8,0.5,22.1,0.7
				c13.2,0.4,26.6,1.5,39.9,0.7c12.4-0.7,24-3.9,33.5-12.1c10-8.6,12.4-22.6,9.7-34.9c-6.3-28.4-39-36.6-63.7-29.8
				c-15.5,4.3-8.9,28.4,6.6,24.1c7.8-2.2,14.7-2.4,22.5,0.3c6.3,2.2,9.3,7.2,10.7,13.4c-0.4-1.7,0,2.6,0,3.2c0.1-1.8-0.7,2.4-0.9,3
				c0.7-2.2-2.3,2.9-0.9,1.2c-1.8,2.2-1,1.4-3.3,2.9c-5.2,3.2-12.3,3.8-19.9,3.9c-10.1,0.2-20.3-0.5-30.4-0.8
				c-5.9-0.2-11.8-0.3-17.6-0.5c-2.4-0.1-4.8-0.1-7.1-0.2c-0.9,0-1.7-0.1-2.5-0.2c2.4,0.2-1.6-0.4-1.7-0.5c-1.1-0.3-1.4-0.9-0.7-0.2
				c0.8,0.7,1.2,1.7,1.2,2.8c-0.2-1.5,0.1-1.5,0.4-3c1.2-5.3,2.8-10.5,4.5-15.7c3.3-9.9,7.6-19.3,12.7-28.4
				c-3.6,2.1-7.2,4.1-10.8,6.2c13.4,0,26.9,0.1,40.3,0.1C3350.2,984.4,3350.2,959.4,3334.1,959.4L3334.1,959.4z"/>
		</g>
	</g>
	<g>
		<g>
			<path fill="#FFFFFF" d="M3456.7,975.4c-10.4,9.9-20.6,20.7-24.4,35c-3.5,13.1-0.3,29.3,10.6,38.1c11.9,9.6,28.2,9.4,42.7,9.2
				c14.5-0.2,29.3-2.8,41.6-10.6c21-13.3,29.4-41.8,21.7-64.9c-8.5-25.6-35.1-38.3-60.8-34.8c-10.8,1.5-20.6,6.4-28.6,13.7
				c-5,4.6-4.6,13,0,17.7c5,5,12.6,4.6,17.7,0c5.1-4.6,12.5-7,19.4-7.1c5-0.1,6.6,0.2,12,2c2.5,0.8,7.1,3.5,8.9,5
				c3.6,3.1,4.8,4.9,7.1,9.7c-0.4-1.1-0.4-0.9,0.2,0.5c0.4,1.2,0.8,2.4,1.1,3.6c0.3,1.2,0.5,2.5,0.8,3.7c-0.4-2.5,0.1,1.6,0.1,1.7
				c0.1,2.1,0,4.2-0.1,6.4c-0.3,4,0.5-2.3-0.3,1.7c-0.2,1.3-0.6,2.5-0.9,3.7c-1,3.8-2.3,6.4-5.3,10.7c0.7-0.9,0.6-0.7-0.4,0.4
				c-0.8,1-1.7,1.8-2.6,2.7c-0.6,0.6-1.2,1.1-1.9,1.7c1.8-1.5-2.2,1.4-1.9,1.2c-4.5,2.9-9.5,4.2-14.8,5.3c-9.5,1.9-22.7,1.8-32,0.4
				c-5-0.7-7.6-2.1-9.2-4.7c-0.7-1.4-0.8-1.6-0.4-0.7c-0.5-1.3-0.7-2.6-1-3.9c0.4,2.1,0-2.2,0-2.2c0,0.1,0.5-4.2,0.1-2.2
				c1.8-10.5,11-18.3,18.3-25.3C3486.1,981.9,3468.4,964.3,3456.7,975.4L3456.7,975.4z"/>
		</g>
	</g>
	<g>
		<g>
			<path fill="#FFFFFF" d="M3314,1024.5c16.1,0,16.1-25,0-25C3297.9,999.5,3297.9,1024.5,3314,1024.5L3314,1024.5z"/>
		</g>
	</g>
	<g>
		<g>
			<path fill="#FFFFFF" d="M3486.4,1020.4c16.1,0,16.1-25,0-25C3470.3,995.4,3470.3,1020.4,3486.4,1020.4L3486.4,1020.4z"/>
		</g>
	</g>
	<g>
		<g>
			<path fill="#FFFFFF" d="M3705.1,777.2c-13.4,11.7-22.5,30-17.2,47.9c5.6,18.7,26.2,30.4,44.3,21.6c13.6-6.5,19.5-27.5,10.7-39.8
				c-5.9-8.2-16.8-12.8-25.3-18c-9-5.5-18-11-26.9-16.5c-13.8-8.4-26.3,13.2-12.6,21.6c12.3,7.6,24.7,15.1,37,22.7
				c2.8,1.7,5.6,3.4,8.4,5.2c-0.6-0.4-2.3-2.7-1.1-0.6c-1.6-2.7,0,1.8-0.4-1.5c0.1,0.7,0.1,1.4,0,2.1c0.1-2.9-0.1,0.1-0.3,0.9
				c-0.9,3.2,1.1-2-0.5,1c-1.6,2.9,1.6-1.5-0.7,0.9c-1.1,1-1,1,0,0c-2.6,1.8,2.1-0.5-0.9,0.4c2.6-0.7-1.9-0.2,0.1,0.1
				c0,0-3.8-1.3-2.1-0.5c-3.3-1.6-5.1-4.3-6.1-7.5c-0.8-2.8,0-7.1,1.6-10.5c2.3-4.8,5.5-8.2,9.6-11.7c5.1-4.5,4.6-13.1,0-17.7
				C3717.7,772.1,3710.2,772.7,3705.1,777.2L3705.1,777.2z"/>
		</g>
	</g>
	<g>
		<g>
			<path fill="#FFFFFF" d="M3738.9,644.8c-7.4,17.9-9,37-6.4,56.1c1.4,10.1,14.7,10.9,20.9,5.5c18.1-15.8,28-41,25.1-64.9
				c-0.8-6.8-5-12.5-12.5-12.5c-6.2,0-13.3,5.7-12.5,12.5c2.3,18.2-3.7,35-17.7,47.2c7,1.8,13.9,3.7,20.9,5.5
				c-2-14.5,0.9-29.3,6.4-42.8c2.6-6.3-2.8-13.7-8.7-15.4C3747.1,634.1,3741.5,638.5,3738.9,644.8L3738.9,644.8z"/>
		</g>
	</g>
	<g>
		<g>
			<path fill="#FFFFFF" d="M3723.2,471.5c-21.3,13.8-21.1,42.4-8.1,62c16.2,24.4,47.3,27.2,74,27.5c12.4,0.2,24.6,0.2,35.5,2.5
				c5.2,1.1,10.5,2.9,14.2,4.7c5.6,2.8,8.3,4.9,12.3,9.7c-1.2-1.4,1.6,2.5,1.3,2.1c0.8,1.3,1.5,2.7,2.2,4c0.6,1.2,1.5,4.8,2,6.9
				c1.2,5.1,1.1,11.8,0.9,18c-0.5,13.3-2.6,26.5-1.9,39.9c1.3,25.1,14.5,45.6,35.4,59.1c18.9,12.2,42.1,17.4,64.1,20.4
				c26.2,3.6,57.7,8.3,80.9-7.4c12-8.1,20.1-20.1,28.4-31.7c7.2-10.1,15.2-19.6,23.7-28.9c35.3-38.6,77.5-71.7,103.4-118
				c29.1-52.2,30.6-115,17.4-172.1c-19.9-86.1-75.8-163-150.5-209.8c-3.5-2.2-9.1-2.5-12.6,0c-30.6,21.6-49.2,58.2-46.5,95.8
				c4.2-4.2,8.3-8.3,12.5-12.5c-61.7-5.8-122.6-20-180.7-41.5c-24.3-9-51.7-20.1-77.2-9c-13.5,5.9-21.3,18-27.3,30.9
				c-6.2,13.4-11.5,27.3-15.8,41.5c-20.7,68.2-17.6,144.2,9.1,210.3c2.5,6.3,8.2,10.7,15.4,8.7c6-1.7,11.3-9,8.7-15.4
				c-21.1-52.2-27-109.9-16.8-165.3c2.6-14.1,6.3-27.9,10.8-41.5c4.3-12.8,9.3-26,16.3-37.6c3-4.9,5.9-7,10.9-9.4
				c-1.8,0.9,2.2-0.6,2.1-0.6c1.3-0.4,2.6-0.7,4-0.9c-2.1,0.4,2.2-0.2,2.1-0.2c1.9-0.1,3.8-0.1,5.6-0.1c10.8,0.3,23.1,4.5,34.3,8.6
				c31.4,11.5,62.8,22,95.4,29.7c33.9,8.1,68.4,13.6,103.1,16.8c6.5,0.6,12.9-6.2,12.5-12.5c-2-28.5,10.6-57.6,34.1-74.2
				c-4.2,0-8.4,0-12.6,0c86.3,54.1,146.2,153.2,146.2,256.4c0,27.9-5.1,56.1-17,81.4c-10.9,23.2-26.7,42.8-44.1,61.3
				c-17.8,19.1-37.1,36.8-55.1,55.8c-9.3,9.8-18.2,20.1-26.5,30.9c-7.7,10-14.2,21-23.6,29.6c-9.1,8.4-22.1,9.4-34.1,9.1
				c-6.2-0.1-12.5-0.7-18.7-1.2c-5.5-0.5-11.5-1.2-15.2-1.7c-11.1-1.6-22.1-4-32.8-7.5c-9.3-3-17.5-6.8-26.4-13.3
				c1.9,1.4-1.2-1-1.2-1.1c-0.9-0.8-1.8-1.6-2.7-2.4c-1.7-1.6-3.3-3.4-4.9-5.2c-2.5-2.9,1.3,1.9-0.9-1.3c-0.7-1-1.3-2-1.9-3
				c-0.6-1-1.2-2.1-1.8-3.2c-0.4-0.7-0.7-1.5-1.1-2.2c0.4,1.1,0.4,1-0.2-0.4c-4.6-11.6-3.8-23.5-2.9-36c2-26.6,4-55.8-19.2-74.4
				c-13.5-10.8-29.9-14.9-46.8-16.7c-16.3-1.8-33.2,0.2-49.2-2.2c-8.1-1.2-15.8-3.4-22.8-7.6c-0.7-0.4-1.3-0.9-2-1.3
				c1,0.8,0.9,0.7-0.2-0.3c-1.2-1-2.3-2.2-3.4-3.4c-0.9-1.1-1-1.2-0.3-0.3c-0.5-0.7-0.9-1.3-1.4-2c-0.9-1.3-1.7-2.8-2.4-4.2
				c-0.6-1.4-0.7-1.5-0.2-0.3c-0.3-0.7-0.6-1.5-0.8-2.3c-0.5-1.5-0.9-3-1.3-4.6c-0.2-0.8-0.3-1.5-0.4-2.3c0.2,1.4,0.2,1.4,0.1-0.1
				c-0.1-1.5-0.1-3,0-4.5c0.1-1.5,0.1-1.5,0,0c0.1-0.7,0.3-1.4,0.5-2.1c0.2-0.7,0.4-1.4,0.6-2.1c-0.6,1.3-0.6,1.3,0,0
				c0.3-0.5,2.8-4,1.1-1.9c0.5-0.6,1-1.1,1.5-1.6c2.5-2.4-1.9,1.1,1.1-0.8c5.7-3.7,8-11,4.5-17.1
				C3737,470.3,3728.9,467.8,3723.2,471.5L3723.2,471.5z"/>
		</g>
	</g>
	<polygon fill="none" stroke="#FFFFFF" stroke-width="40" stroke-miterlimit="10" points="4859.8,1498.1 4170.3,1498.1 
		4118.2,1061.1 4891.9,1061.1 	"/>
	<g>
		<g>
			<path fill="#FFFFFF" d="M4544.1,1221.4c-32.5,4.2-67.9,16.9-80.7,50c-10.1,26.1,2.9,62.9,32.2,69.2c6.7,1.4,13.5-1.9,15.4-8.7
				c1.7-6.3-2.1-14-8.7-15.4c-1.1-0.2-2.2-0.5-3.3-0.9c-3.4-1,2,1.1-1.1-0.4c-1-0.5-1.9-1.1-2.8-1.7c-1.2-0.8-1.2-0.8-0.1,0
				c-0.6-0.5-1.1-1-1.6-1.5c-0.8-0.7-1.5-1.6-2.2-2.4c1.8,2-0.5-0.7-0.7-1c-0.6-0.9-1.2-1.9-1.7-2.9c-0.4-0.7-0.7-1.3-1-2
				c0.5,1.2,0.5,1.2,0-0.2c-3.7-9.8-3.4-16.9,0.3-26.6c-0.9,2.4,0.6-1,0.7-1.2c0.6-1.1,1.3-2.2,2-3.2c1.6-2.4,3-3.9,5.3-6.3
				c4-4.1,8.1-6.7,13.7-9.7c9.7-5.2,24.1-8.8,34.5-10.2c6.8-0.9,12.5-5,12.5-12.5C4556.6,1227.7,4550.9,1220.5,4544.1,1221.4
				L4544.1,1221.4z"/>
		</g>
	</g>
	<g>
		<g>
			<path fill="#FFFFFF" d="M4528.3,1238.6c-26.8,4.3-55.4,14.6-69.1,39.9c-6.5,12.1-8.6,26-5.7,39.4c3.2,14.4,14.5,24.8,27,31.5
				c24.9,13.5,59.2,27,83.3,5.1c18-16.3,18.7-46.4,3-64.2c-7.8-8.8-19.4-13.7-29.7-19c-2.4-1.2-4.9-2.5-7.2-3.9
				c-1-0.6-1.9-1.2-2.9-1.8c-0.6-0.4-1.2-0.8-1.8-1.3c1.1,0.9,1.1,0.8,0-0.1c-0.8-0.7-1.5-1.4-2.3-2.2c-0.9-1.1-0.9-1,0,0.2
				c-0.4-0.5-0.8-1.1-1.1-1.7c-0.3-0.4-1.6-3.4-0.5-0.7c-0.2-0.6-1.1-4.8-0.7-1.9c-0.9-7.1-7.5-15.5-15.8-12.1
				c-18.3,7.6-34.5,25.3-28.9,46.5c4.6,17.7,28.3,29.9,44.2,18.5c-5.7-1.5-11.4-3-17.1-4.5c2.9,4.6,5.8,9.2,8.8,13.8
				c3.6,5.7,11.1,8,17.1,4.5c5.7-3.3,8.1-11.3,4.5-17.1c-2.9-4.6-5.8-9.2-8.8-13.8c-3.4-5.3-11.4-8.6-17.1-4.5
				c-0.6,0.5-1.3,0.9-1.9,1.3c2.3-1.4-2,0,1-0.3c-3.3,0.3,2.2,0.7-1.1,0c-3.3-0.7,1.8,1.1-1.3-0.4c-0.7-0.4-1.4-0.8-2-1.2
				c2,1.3-0.9-1-1.1-1.2c1.6,1.6-0.6-1.1-0.8-1.3c1.2,2-0.3-1-0.4-1.4c0.1,1.4,0.2,1.3,0.1-0.4c-0.1-3.5-0.5,1.2,0.3-2.2
				c0.4-1.5,1.4-3.5,3-5.7c1.4-2,6.3-5.4,8.4-6.3c-5.3-4-10.5-8-15.8-12.1c1.6,12.6,7.7,21.2,17.9,28.5c8,5.8,17.5,9.3,26.1,14.2
				c2.1,1.2,4,2.5,6,3.9c-2-1.5,0.9,0.8,1.1,1c0.9,0.8,1.7,1.6,2.4,2.4c2.5,2.6-1.1-1.8,0.9,1.2c0.6,1,1.2,2,1.7,3
				c-1.2-2.3,0.3,1,0.4,1.3c0.5,1.5,0.8,3,1,4.5c-0.5-2.8-0.1,1-0.1,1.3c0,1.2,0,2.3-0.1,3.5c-0.2,3.8,0.5-2.4-0.2,1.3
				c-0.2,1.2-0.6,2.3-0.9,3.4c-0.9,3.1-3.1,6.6-5.8,9.2c-2.6,2.5,1.9-1.2-1.1,0.9c-1,0.7-2,1.2-3,1.8c-1.3,0.7-3.6,1.4-5.8,1.6
				c-7.1,0.8-14-1.1-20.7-3.4c-6.2-2.1-12.1-4.9-18-7.7c-6-2.9-11.6-5.9-16.2-10.9c0.6,0.7-1.6-2.4-1.4-2.1c0.1,0.1-1.8-3.8-1.1-1.9
				c-0.5-1.3-0.8-2.6-1.2-3.9c0,0-0.6-4.2-0.4-2.1c-0.6-6.1,0.2-9.7,2.5-15.9c1.2-3.4,4.5-8.1,7.4-11.1c4.4-4.6,9.8-7.8,15.5-10.6
				c9.8-4.9,21.4-7.1,32.3-8.9c6.7-1.1,10.4-9.4,8.7-15.4C4541.7,1240.2,4535,1237.5,4528.3,1238.6L4528.3,1238.6z"/>
		</g>
	</g>
	<g>
		<g>
			<path fill="#FFFFFF" d="M4373.5,1061.3c-14.2-25.4-23.4-53.8-25.9-82.7c-1.1-13.1,0.4-26.5,5.9-37.5
				c5.4-10.7,13.1-18.9,22.7-26.6c20.4-16.3,49.4-22.6,75.3-25.9c31.8-4,63.8-6.4,95.7-9.5c13.2-1.3,26.4-2.7,39.6-3.7
				c12.3-0.9,24.6-1,36.5,2.4c20.1,5.8,31.5,24,40.1,42.3c10.3,21.7,18.1,47.3,23.5,71.6c5.6,25.4,7.8,52.1,3.4,77.8
				c-1.1,6.7,1.7,13.4,8.7,15.4c6.1,1.7,14.2-2,15.4-8.7c5.4-31.7,2.9-63.5-4.2-94.7c-6.4-27.9-15.7-56.6-29.2-81.9
				c-12.9-24.3-33.4-43.5-61.1-48.1c-15.1-2.5-30.2-1.4-45.3,0.1c-16.3,1.6-32.5,3.2-48.8,4.7c-31.9,3.1-64.1,5-95.7,10.6
				c-28.4,5-55.6,15.4-77.3,34.9c-21.6,19.4-32.1,46.2-30.4,75c1.8,31,11.2,61.7,25.2,89.3c1.4,2.7,2.8,5.3,4.3,7.9
				C4359.7,1088,4381.3,1075.4,4373.5,1061.3L4373.5,1061.3z"/>
		</g>
	</g>
	<g>
		<g>
			<path fill="#FFFFFF" d="M4402.2,833.2c7.9,9.4,15.8,18.9,23.8,28.3c4.4,5.2,13.2,4.5,17.7,0c5.1-5.1,4.4-12.5,0-17.7
				c-7.9-9.4-15.8-18.9-23.8-28.3c-4.4-5.2-13.2-4.5-17.7,0C4397.1,820.6,4397.8,828,4402.2,833.2L4402.2,833.2z"/>
		</g>
	</g>
	<g>
		<g>
			<path fill="#FFFFFF" d="M4527.4,793.2c-2.3,15.9-1.8,31.5,2.4,47c4.3,15.5,28.4,8.9,24.1-6.6c-3-10.9-4.1-22.5-2.4-33.7
				c1-6.7-1.6-13.4-8.7-15.4C4536.8,782.8,4528.4,786.5,4527.4,793.2L4527.4,793.2z"/>
		</g>
	</g>
	<g>
		<g>
			<path fill="#FFFFFF" d="M4591.2,805.2c-3,9.3-5.9,18.5-8.9,27.8c-4.9,15.4,19.2,21.9,24.1,6.6c3-9.3,5.9-18.5,8.9-27.8
				C4620.3,796.4,4596.1,789.9,4591.2,805.2L4591.2,805.2z"/>
		</g>
	</g>
	<g>
		<g>
			<path fill="#FFFFFF" d="M4458.9,940.3c-13.4,0-26.9-0.1-40.3-0.1c-4.3,0-8.7,2.4-10.8,6.2c-6.7,12-12.1,24.7-16.3,37.9
				c-2.1,6.6-3.8,13.4-4.6,20.3c-0.9,8.3,4.1,15.2,10.4,19.9c4.7,3.4,11.5,4.2,17.1,4.7c7.3,0.6,14.8,0.5,22.1,0.7
				c13.2,0.4,26.6,1.5,39.9,0.7c12.4-0.7,24-3.9,33.5-12.1c10-8.6,12.4-22.6,9.7-34.9c-6.3-28.4-39-36.6-63.7-29.8
				c-15.5,4.3-8.9,28.4,6.6,24.1c7.8-2.2,14.7-2.4,22.5,0.3c6.3,2.2,9.3,7.2,10.7,13.4c-0.4-1.7,0,2.6,0,3.2c0.1-1.8-0.7,2.4-0.9,3
				c0.7-2.2-2.3,2.9-0.9,1.2c-1.8,2.2-1,1.4-3.3,2.9c-5.2,3.2-12.3,3.8-19.9,3.9c-10.1,0.2-20.3-0.5-30.4-0.8
				c-5.9-0.2-11.8-0.3-17.6-0.5c-2.4-0.1-4.8-0.1-7.1-0.2c-0.9,0-1.7-0.1-2.5-0.2c2.4,0.2-1.6-0.4-1.7-0.5c-1.1-0.3-1.4-0.9-0.7-0.2
				c0.8,0.7,1.2,1.7,1.2,2.8c-0.2-1.5,0.1-1.5,0.4-3c1.2-5.3,2.8-10.5,4.5-15.7c3.3-9.9,7.6-19.3,12.7-28.4
				c-3.6,2.1-7.2,4.1-10.8,6.2c13.4,0,26.9,0.1,40.3,0.1C4475.1,965.4,4475.1,940.4,4458.9,940.3L4458.9,940.3z"/>
		</g>
	</g>
	<g>
		<g>
			<path fill="#FFFFFF" d="M4581.6,956.4c-10.4,9.9-20.6,20.7-24.4,35c-3.5,13.1-0.3,29.3,10.6,38.1c11.9,9.6,28.2,9.4,42.7,9.2
				c14.5-0.2,29.3-2.8,41.6-10.6c21-13.3,29.4-41.8,21.7-64.9c-8.5-25.6-35.1-38.3-60.8-34.8c-10.8,1.5-20.6,6.4-28.6,13.7
				c-5,4.6-4.6,13,0,17.7c5,5,12.6,4.6,17.7,0c5.1-4.6,12.5-7,19.4-7.1c5-0.1,6.6,0.2,12,2c2.5,0.8,7.1,3.5,8.9,5
				c3.6,3.1,4.8,4.9,7.1,9.7c-0.4-1.1-0.4-0.9,0.2,0.5c0.4,1.2,0.8,2.4,1.1,3.6c0.3,1.2,0.5,2.5,0.8,3.7c-0.4-2.5,0.1,1.6,0.1,1.7
				c0.1,2.1,0,4.2-0.2,6.4c-0.3,4,0.5-2.3-0.3,1.7c-0.2,1.3-0.6,2.5-0.9,3.7c-1,3.8-2.3,6.4-5.3,10.7c0.7-0.9,0.6-0.7-0.4,0.4
				c-0.8,1-1.7,1.8-2.6,2.7c-0.6,0.6-1.2,1.1-1.9,1.7c1.8-1.5-2.2,1.4-1.9,1.2c-4.5,2.9-9.5,4.2-14.8,5.3c-9.5,1.9-22.7,1.8-32,0.4
				c-5-0.7-7.6-2.1-9.2-4.7c-0.7-1.4-0.8-1.6-0.4-0.7c-0.5-1.3-0.7-2.6-1-3.9c0.4,2.1,0-2.2,0-2.2c0,0.1,0.5-4.2,0.1-2.2
				c1.8-10.5,11-18.3,18.3-25.3C4610.9,962.9,4593.2,945.2,4581.6,956.4L4581.6,956.4z"/>
		</g>
	</g>
	<g>
		<g>
			<path fill="#FFFFFF" d="M4438.9,1005.4c16.1,0,16.1-25,0-25S4422.8,1005.4,4438.9,1005.4L4438.9,1005.4z"/>
		</g>
	</g>
	<g>
		<g>
			<path fill="#FFFFFF" d="M4611.3,1001.4c16.1,0,16.1-25,0-25S4595.2,1001.4,4611.3,1001.4L4611.3,1001.4z"/>
		</g>
	</g>
	<polygon fill="none" stroke="#FFFFFF" stroke-width="40" stroke-miterlimit="10" points="2604.3,1510.1 1914.7,1510.1 
		1862.6,1073.1 2636.4,1073.1 	"/>
	<g>
		<g>
			<path fill="#FFFFFF" d="M2288.5,1233.4c-32.5,4.2-67.9,16.9-80.7,50c-10.1,26.1,2.9,62.9,32.2,69.2c6.7,1.4,13.5-1.9,15.4-8.7
				c1.7-6.3-2.1-14-8.7-15.4c-1.1-0.2-2.2-0.5-3.3-0.9c-3.4-1,2,1.1-1.1-0.4c-1-0.5-1.9-1.1-2.8-1.7c-1.2-0.8-1.2-0.8-0.1,0
				c-0.6-0.5-1.1-1-1.6-1.5c-0.8-0.7-1.5-1.6-2.2-2.4c1.8,2-0.5-0.7-0.7-1c-0.6-0.9-1.2-1.9-1.7-2.9c-0.4-0.7-0.7-1.3-1-2
				c0.5,1.2,0.5,1.2,0-0.2c-3.7-9.8-3.4-16.9,0.3-26.6c-0.9,2.4,0.6-1,0.7-1.2c0.6-1.1,1.3-2.2,2-3.2c1.6-2.4,3-3.9,5.3-6.3
				c4-4.1,8.1-6.7,13.7-9.7c9.7-5.2,24.1-8.8,34.5-10.2c6.8-0.9,12.5-5,12.5-12.5C2301,1239.7,2295.3,1232.5,2288.5,1233.4
				L2288.5,1233.4z"/>
		</g>
	</g>
	<g>
		<g>
			<path fill="#FFFFFF" d="M2272.8,1250.6c-26.8,4.3-55.4,14.6-69.1,39.9c-6.5,12.1-8.6,26-5.7,39.4c3.2,14.4,14.5,24.8,27,31.5
				c24.9,13.5,59.2,27,83.3,5.1c18-16.3,18.7-46.4,3-64.2c-7.8-8.8-19.4-13.7-29.7-19c-2.4-1.2-4.9-2.5-7.2-3.9
				c-1-0.6-1.9-1.2-2.9-1.8c-0.6-0.4-1.2-0.8-1.8-1.3c1.1,0.9,1.1,0.8,0-0.1c-0.8-0.7-1.5-1.4-2.3-2.2c-0.9-1.1-0.9-1,0,0.2
				c-0.4-0.5-0.8-1.1-1.1-1.7c-0.3-0.4-1.6-3.4-0.5-0.7c-0.2-0.6-1.1-4.8-0.7-1.9c-0.9-7.1-7.5-15.5-15.8-12.1
				c-18.3,7.6-34.5,25.3-28.9,46.5c4.6,17.7,28.3,29.9,44.2,18.5c-5.7-1.5-11.4-3-17.1-4.5c2.9,4.6,5.8,9.2,8.8,13.8
				c3.6,5.7,11.1,8,17.1,4.5c5.7-3.3,8.1-11.3,4.5-17.1c-2.9-4.6-5.8-9.2-8.8-13.8c-3.4-5.3-11.4-8.6-17.1-4.5
				c-0.6,0.5-1.3,0.9-1.9,1.3c2.3-1.4-2,0,1-0.3c-3.3,0.3,2.2,0.7-1.1,0c-3.3-0.7,1.8,1.1-1.3-0.4c-0.7-0.4-1.4-0.8-2-1.2
				c2,1.3-0.9-1-1.1-1.2c1.6,1.6-0.6-1.1-0.8-1.3c1.2,2-0.3-1-0.4-1.4c0.1,1.4,0.2,1.3,0.1-0.4c-0.1-3.5-0.5,1.2,0.3-2.2
				c0.4-1.5,1.4-3.5,3-5.7c1.4-2,6.3-5.4,8.4-6.3c-5.3-4-10.5-8-15.8-12.1c1.6,12.6,7.7,21.2,17.9,28.5c8,5.8,17.5,9.3,26.1,14.2
				c2.1,1.2,4,2.5,6,3.9c-2-1.5,0.9,0.8,1.1,1c0.9,0.8,1.7,1.6,2.4,2.4c2.5,2.6-1.1-1.8,0.9,1.2c0.6,1,1.2,2,1.7,3
				c-1.2-2.3,0.3,1,0.4,1.3c0.5,1.5,0.8,3,1,4.5c-0.5-2.8-0.1,1-0.1,1.3c0,1.2,0,2.3-0.1,3.5c-0.2,3.8,0.5-2.4-0.2,1.3
				c-0.2,1.2-0.6,2.3-0.9,3.4c-0.9,3.1-3.1,6.6-5.8,9.2c-2.6,2.5,1.9-1.2-1.1,0.9c-0.9,0.7-2,1.2-3,1.8c-1.3,0.7-3.6,1.4-5.8,1.6
				c-7.1,0.8-14-1.1-20.7-3.4c-6.2-2.1-12.1-4.9-18-7.7c-6-2.9-11.6-5.9-16.2-10.9c0.6,0.7-1.6-2.4-1.4-2.1c0.1,0.1-1.8-3.8-1.1-1.9
				c-0.5-1.3-0.8-2.6-1.2-3.9c0,0-0.6-4.2-0.4-2.1c-0.6-6.1,0.2-9.7,2.5-15.9c1.2-3.4,4.5-8.1,7.4-11.1c4.4-4.6,9.8-7.8,15.5-10.6
				c9.8-4.9,21.4-7.1,32.3-8.9c6.7-1.1,10.4-9.4,8.7-15.4C2286.2,1252.2,2279.5,1249.5,2272.8,1250.6L2272.8,1250.6z"/>
		</g>
	</g>
	<g>
		<g>
			<path fill="#FFFFFF" d="M2117.9,1073.3c-14.2-25.4-23.4-53.8-25.9-82.7c-1.1-13.1,0.4-26.5,5.9-37.5
				c5.4-10.7,13.1-18.9,22.7-26.6c20.4-16.3,49.4-22.6,75.3-25.9c31.8-4,63.8-6.4,95.7-9.5c13.2-1.3,26.4-2.7,39.6-3.7
				c12.3-0.9,24.6-1,36.5,2.4c20.1,5.8,31.5,24,40.2,42.3c10.3,21.7,18.1,47.3,23.5,71.6c5.6,25.4,7.8,52.1,3.4,77.8
				c-1.1,6.7,1.7,13.4,8.7,15.4c6.1,1.7,14.2-2,15.4-8.7c5.4-31.7,2.9-63.5-4.2-94.7c-6.4-27.9-15.7-56.6-29.2-81.9
				c-12.9-24.3-33.4-43.5-61.1-48.1c-15.1-2.5-30.2-1.4-45.3,0.1c-16.3,1.6-32.5,3.2-48.8,4.7c-31.9,3.1-64.1,5-95.6,10.6
				c-28.4,5-55.6,15.4-77.3,34.9c-21.6,19.4-32.1,46.2-30.4,75c1.8,31,11.2,61.7,25.2,89.3c1.4,2.7,2.8,5.3,4.3,7.9
				C2104.2,1100,2125.8,1087.4,2117.9,1073.3L2117.9,1073.3z"/>
		</g>
	</g>
	<g>
		<g>
			<path fill="#FFFFFF" d="M2146.7,845.2c7.9,9.4,15.8,18.9,23.8,28.3c4.4,5.2,13.2,4.5,17.7,0c5.1-5.1,4.4-12.5,0-17.7
				c-7.9-9.4-15.8-18.9-23.8-28.3c-4.4-5.2-13.2-4.5-17.7,0C2141.5,832.6,2142.3,840,2146.7,845.2L2146.7,845.2z"/>
		</g>
	</g>
	<g>
		<g>
			<path fill="#FFFFFF" d="M2271.9,805.2c-2.3,15.9-1.8,31.5,2.4,47c4.3,15.5,28.4,8.9,24.1-6.6c-3-10.9-4.1-22.5-2.4-33.7
				c1-6.7-1.6-13.4-8.7-15.4C2281.3,794.8,2272.9,798.5,2271.9,805.2L2271.9,805.2z"/>
		</g>
	</g>
	<g>
		<g>
			<path fill="#FFFFFF" d="M2335.7,817.2c-3,9.3-5.9,18.5-8.9,27.8c-4.9,15.4,19.2,21.9,24.1,6.6c3-9.3,5.9-18.5,8.9-27.8
				C2364.7,808.4,2340.6,801.9,2335.7,817.2L2335.7,817.2z"/>
		</g>
	</g>
	<g>
		<g>
			<path fill="#FFFFFF" d="M2203.4,952.3c-13.4,0-26.9-0.1-40.3-0.1c-4.3,0-8.7,2.4-10.8,6.2c-6.7,12-12.1,24.7-16.3,37.9
				c-2.1,6.6-3.8,13.4-4.6,20.3c-0.9,8.3,4.1,15.2,10.4,19.9c4.7,3.4,11.5,4.2,17.1,4.7c7.3,0.6,14.8,0.5,22.1,0.7
				c13.2,0.4,26.6,1.5,39.9,0.7c12.4-0.7,24-3.9,33.5-12.1c10-8.6,12.4-22.6,9.7-34.9c-6.3-28.4-39-36.6-63.7-29.8
				c-15.5,4.3-8.9,28.4,6.6,24.1c7.8-2.2,14.7-2.4,22.5,0.3c6.3,2.2,9.3,7.2,10.7,13.4c-0.4-1.7,0,2.6,0,3.2c0.1-1.8-0.7,2.4-0.9,3
				c0.7-2.2-2.3,2.9-0.9,1.2c-1.8,2.2-1,1.4-3.3,2.9c-5.2,3.2-12.3,3.8-19.9,3.9c-10.1,0.2-20.3-0.5-30.4-0.8
				c-5.9-0.2-11.8-0.3-17.6-0.5c-2.4-0.1-4.8-0.1-7.1-0.2c-0.9,0-1.7-0.1-2.5-0.2c2.4,0.2-1.6-0.4-1.7-0.5c-1.1-0.3-1.4-0.9-0.7-0.2
				c0.8,0.7,1.2,1.7,1.2,2.8c-0.2-1.5,0.1-1.5,0.4-3c1.2-5.3,2.8-10.5,4.5-15.7c3.3-9.9,7.6-19.3,12.7-28.4
				c-3.6,2.1-7.2,4.1-10.8,6.2c13.4,0,26.9,0.1,40.3,0.1C2219.5,977.4,2219.5,952.4,2203.4,952.3L2203.4,952.3z"/>
		</g>
	</g>
	<g>
		<g>
			<path fill="#FFFFFF" d="M2326,968.4c-10.4,9.9-20.6,20.7-24.4,35c-3.5,13.1-0.3,29.3,10.6,38.1c11.9,9.6,28.2,9.4,42.7,9.2
				c14.5-0.2,29.3-2.8,41.6-10.6c21-13.3,29.4-41.8,21.7-64.9c-8.5-25.6-35.1-38.3-60.8-34.8c-10.8,1.5-20.6,6.4-28.6,13.7
				c-5,4.6-4.6,13,0,17.7c5,5,12.6,4.6,17.7,0c5.1-4.6,12.5-7,19.4-7.1c5-0.1,6.6,0.2,12,2c2.5,0.8,7.1,3.5,8.9,5
				c3.6,3.1,4.8,4.9,7.1,9.7c-0.4-1.1-0.4-0.9,0.2,0.5c0.4,1.2,0.8,2.4,1.1,3.6c0.3,1.2,0.5,2.5,0.8,3.7c-0.4-2.5,0.1,1.6,0.1,1.7
				c0.1,2.1,0,4.2-0.1,6.4c-0.3,4,0.5-2.3-0.3,1.7c-0.2,1.3-0.6,2.5-0.9,3.7c-1,3.8-2.3,6.4-5.3,10.7c0.7-0.9,0.6-0.7-0.4,0.4
				c-0.8,1-1.7,1.8-2.6,2.7c-0.6,0.6-1.2,1.1-1.9,1.7c1.8-1.5-2.2,1.4-1.9,1.2c-4.5,2.9-9.5,4.2-14.8,5.3c-9.5,1.9-22.7,1.8-32,0.4
				c-5-0.7-7.6-2.1-9.2-4.7c-0.7-1.4-0.8-1.6-0.4-0.7c-0.5-1.3-0.7-2.6-1-3.9c0.4,2.1,0-2.2,0-2.2c0,0.1,0.5-4.2,0.1-2.2
				c1.8-10.5,11-18.3,18.3-25.3C2355.4,974.9,2337.7,957.2,2326,968.4L2326,968.4z"/>
		</g>
	</g>
	<g>
		<g>
			<path fill="#FFFFFF" d="M2183.3,1017.4c16.1,0,16.1-25,0-25C2167.2,992.4,2167.2,1017.4,2183.3,1017.4L2183.3,1017.4z"/>
		</g>
	</g>
	<g>
		<g>
			<path fill="#FFFFFF" d="M2355.7,1013.4c16.1,0,16.1-25,0-25C2339.6,988.4,2339.6,1013.4,2355.7,1013.4L2355.7,1013.4z"/>
		</g>
	</g>
	<polygon fill="none" stroke="#FFFFFF" stroke-width="40" stroke-miterlimit="10" points="1441.9,1486.7 752.4,1486.7 700.3,1049.7 
		1474,1049.7 	"/>
	<g>
		<g>
			<path fill="#FFFFFF" d="M1126.2,1210c-32.5,4.2-67.9,16.9-80.7,50c-10.1,26.1,2.9,62.9,32.2,69.2c6.7,1.4,13.5-1.9,15.4-8.7
				c1.7-6.3-2.1-14-8.7-15.4c-1.1-0.2-2.2-0.5-3.3-0.9c-3.4-1,2,1.1-1.1-0.4c-1-0.5-1.9-1.1-2.8-1.7c-1.2-0.8-1.2-0.8-0.1,0
				c-0.6-0.5-1.1-1-1.6-1.5c-0.8-0.7-1.5-1.6-2.2-2.4c1.8,2-0.5-0.7-0.7-1c-0.6-0.9-1.2-1.9-1.7-2.9c-0.4-0.7-0.7-1.3-1-2
				c0.5,1.2,0.5,1.2,0-0.2c-3.7-9.8-3.4-16.9,0.3-26.6c-0.9,2.4,0.6-1,0.7-1.2c0.6-1.1,1.3-2.2,2-3.2c1.6-2.4,3-3.9,5.3-6.3
				c4-4.1,8.1-6.7,13.7-9.7c9.7-5.2,24.1-8.8,34.5-10.2c6.8-0.9,12.5-5,12.5-12.5C1138.7,1216.3,1133,1209.1,1126.2,1210
				L1126.2,1210z"/>
		</g>
	</g>
	<g>
		<g>
			<path fill="#FFFFFF" d="M1110.4,1227.2c-26.8,4.3-55.4,14.6-69.1,39.9c-6.5,12.1-8.6,26-5.7,39.4c3.2,14.4,14.5,24.8,27,31.5
				c24.9,13.5,59.2,27,83.3,5.1c18-16.3,18.7-46.4,3-64.2c-7.8-8.8-19.4-13.7-29.7-19c-2.4-1.2-4.9-2.5-7.2-3.9
				c-1-0.6-1.9-1.2-2.9-1.8c-0.6-0.4-1.2-0.8-1.8-1.3c1.1,0.9,1.1,0.8,0-0.1c-0.8-0.7-1.5-1.4-2.3-2.2c-0.9-1.1-0.9-1,0,0.2
				c-0.4-0.5-0.8-1.1-1.1-1.7c-0.3-0.4-1.6-3.4-0.5-0.7c-0.2-0.6-1.1-4.8-0.7-1.9c-0.9-7.1-7.5-15.5-15.8-12.1
				c-18.3,7.6-34.5,25.3-28.9,46.5c4.6,17.7,28.3,29.9,44.2,18.5c-5.7-1.5-11.4-3-17.1-4.5c2.9,4.6,5.8,9.2,8.8,13.8
				c3.6,5.7,11.1,8,17.1,4.5c5.7-3.3,8.1-11.3,4.5-17.1c-2.9-4.6-5.8-9.2-8.8-13.8c-3.4-5.3-11.4-8.6-17.1-4.5
				c-0.6,0.5-1.3,0.9-1.9,1.3c2.3-1.4-2,0,1-0.3c-3.3,0.3,2.2,0.7-1.1,0c-3.3-0.7,1.8,1.1-1.3-0.4c-0.7-0.4-1.4-0.8-2-1.2
				c2,1.3-0.9-1-1.1-1.2c1.6,1.6-0.6-1.1-0.8-1.3c1.2,2-0.3-1-0.4-1.4c0.1,1.4,0.2,1.3,0.1-0.4c-0.1-3.5-0.5,1.2,0.3-2.2
				c0.4-1.5,1.4-3.5,3-5.7c1.4-2,6.3-5.4,8.4-6.3c-5.3-4-10.5-8-15.8-12.1c1.6,12.6,7.7,21.2,17.9,28.5c8,5.8,17.5,9.3,26.1,14.2
				c2.1,1.2,4,2.5,6,3.9c-2-1.5,0.9,0.8,1.1,1c0.9,0.8,1.7,1.6,2.4,2.4c2.5,2.6-1.1-1.8,0.9,1.2c0.6,1,1.2,2,1.7,3
				c-1.2-2.3,0.3,1,0.4,1.3c0.5,1.5,0.8,3,1,4.5c-0.5-2.8-0.1,1-0.1,1.3c0,1.2,0,2.3-0.1,3.5c-0.2,3.8,0.5-2.4-0.2,1.3
				c-0.2,1.2-0.6,2.3-0.9,3.4c-0.9,3.1-3.1,6.6-5.8,9.2c-2.6,2.5,1.9-1.2-1.1,0.9c-0.9,0.7-2,1.2-3,1.8c-1.3,0.7-3.6,1.4-5.8,1.6
				c-7.1,0.8-14-1.1-20.7-3.4c-6.2-2.1-12.1-4.9-18-7.7c-6-2.9-11.6-5.9-16.2-10.9c0.6,0.7-1.6-2.4-1.4-2.1c0.1,0.1-1.8-3.8-1.1-1.9
				c-0.5-1.3-0.8-2.6-1.2-3.9c0,0-0.6-4.2-0.4-2.1c-0.6-6.1,0.2-9.7,2.5-15.9c1.2-3.4,4.5-8.1,7.4-11.1c4.4-4.6,9.8-7.8,15.5-10.6
				c9.8-4.9,21.4-7.1,32.3-8.9c6.7-1.1,10.4-9.4,8.7-15.4C1123.8,1228.8,1117.1,1226.1,1110.4,1227.2L1110.4,1227.2z"/>
		</g>
	</g>
	<g>
		<g>
			<path fill="#FFFFFF" d="M955.6,1049.9c-14.2-25.4-23.4-53.8-25.9-82.7c-1.1-13.1,0.4-26.5,5.9-37.5c5.4-10.7,13.1-18.9,22.7-26.6
				c20.4-16.3,49.4-22.6,75.3-25.9c31.8-4,63.8-6.4,95.7-9.5c13.2-1.3,26.4-2.7,39.6-3.7c12.3-0.9,24.6-1,36.5,2.4
				c20.1,5.8,31.5,24,40.2,42.3c10.3,21.7,18.1,47.3,23.5,71.6c5.6,25.4,7.8,52.1,3.4,77.8c-1.1,6.7,1.7,13.4,8.7,15.4
				c6.1,1.7,14.2-2,15.4-8.7c5.4-31.7,2.9-63.5-4.2-94.7c-6.4-27.9-15.7-56.6-29.2-81.9c-12.9-24.3-33.4-43.5-61.1-48.1
				c-15.1-2.5-30.2-1.4-45.3,0.1c-16.3,1.6-32.5,3.2-48.8,4.7c-31.9,3.1-64.1,5-95.6,10.6c-28.4,5-55.6,15.4-77.3,34.9
				c-21.6,19.4-32.1,46.2-30.4,75c1.8,31,11.2,61.7,25.2,89.3c1.4,2.7,2.8,5.3,4.3,7.9C941.9,1076.6,963.4,1064,955.6,1049.9
				L955.6,1049.9z"/>
		</g>
	</g>
	<g>
		<g>
			<path fill="#FFFFFF" d="M984.3,821.8c7.9,9.4,15.8,18.9,23.8,28.3c4.4,5.2,13.2,4.5,17.7,0c5.1-5.1,4.4-12.5,0-17.7
				c-7.9-9.4-15.8-18.9-23.8-28.3c-4.4-5.2-13.2-4.5-17.7,0C979.2,809.3,979.9,816.6,984.3,821.8L984.3,821.8z"/>
		</g>
	</g>
	<g>
		<g>
			<path fill="#FFFFFF" d="M1109.5,781.8c-2.3,15.9-1.8,31.5,2.4,47c4.3,15.5,28.4,8.9,24.1-6.6c-3-10.9-4.1-22.5-2.4-33.7
				c1-6.7-1.6-13.4-8.7-15.4C1119,771.5,1110.5,775.1,1109.5,781.8L1109.5,781.8z"/>
		</g>
	</g>
	<g>
		<g>
			<path fill="#FFFFFF" d="M1173.3,793.8c-3,9.3-5.9,18.5-8.9,27.8c-4.9,15.4,19.2,21.9,24.1,6.6c3-9.3,5.9-18.5,8.9-27.8
				C1202.4,785.1,1178.2,778.5,1173.3,793.8L1173.3,793.8z"/>
		</g>
	</g>
	<g>
		<g>
			<path fill="#FFFFFF" d="M1041,929c-13.4,0-26.9-0.1-40.3-0.1c-4.3,0-8.7,2.4-10.8,6.2c-6.7,12-12.1,24.7-16.3,37.9
				c-2.1,6.6-3.8,13.4-4.6,20.3c-0.9,8.3,4.1,15.2,10.4,19.9c4.7,3.4,11.5,4.2,17.1,4.7c7.3,0.6,14.8,0.5,22.1,0.7
				c13.2,0.4,26.6,1.5,39.9,0.7c12.4-0.7,24-3.9,33.5-12.1c10-8.6,12.4-22.6,9.7-34.9c-6.3-28.4-39-36.6-63.7-29.8
				c-15.5,4.3-8.9,28.4,6.6,24.1c7.8-2.2,14.7-2.4,22.5,0.3c6.3,2.2,9.3,7.2,10.7,13.4c-0.4-1.7,0,2.6,0,3.2c0.1-1.8-0.7,2.4-0.9,3
				c0.7-2.2-2.3,2.9-0.9,1.2c-1.8,2.2-1,1.4-3.3,2.9c-5.2,3.2-12.3,3.8-19.9,3.9c-10.1,0.2-20.3-0.5-30.4-0.8
				c-5.9-0.2-11.8-0.3-17.6-0.5c-2.4-0.1-4.8-0.1-7.1-0.2c-0.9,0-1.7-0.1-2.5-0.2c2.4,0.2-1.6-0.4-1.7-0.5c-1.1-0.3-1.4-0.9-0.7-0.2
				c0.8,0.7,1.2,1.7,1.2,2.8c-0.2-1.5,0.1-1.5,0.4-3c1.2-5.3,2.8-10.5,4.5-15.7c3.3-9.9,7.6-19.3,12.7-28.4
				c-3.6,2.1-7.2,4.1-10.8,6.2c13.4,0,26.9,0.1,40.3,0.1C1057.2,954,1057.2,929,1041,929L1041,929z"/>
		</g>
	</g>
	<g>
		<g>
			<path fill="#FFFFFF" d="M1163.7,945c-10.4,9.9-20.6,20.7-24.4,35c-3.5,13.1-0.3,29.3,10.6,38.1c11.9,9.6,28.2,9.4,42.7,9.2
				c14.5-0.2,29.3-2.8,41.6-10.6c21-13.3,29.4-41.8,21.7-64.9c-8.5-25.6-35.1-38.3-60.8-34.8c-10.8,1.5-20.6,6.4-28.6,13.7
				c-5,4.6-4.6,13,0,17.7c5,5,12.6,4.6,17.7,0c5.1-4.6,12.5-7,19.4-7.1c5-0.1,6.6,0.2,12,2c2.5,0.8,7.1,3.5,8.9,5
				c3.6,3.1,4.8,4.9,7.1,9.7c-0.4-1.1-0.4-0.9,0.2,0.5c0.4,1.2,0.8,2.4,1.1,3.6c0.3,1.2,0.5,2.5,0.8,3.7c-0.4-2.5,0.1,1.6,0.1,1.7
				c0.1,2.1,0,4.2-0.2,6.4c-0.3,4,0.5-2.3-0.3,1.7c-0.2,1.3-0.6,2.5-0.9,3.7c-1,3.8-2.3,6.4-5.3,10.7c0.7-0.9,0.6-0.7-0.4,0.4
				c-0.8,1-1.7,1.8-2.6,2.7c-0.6,0.6-1.2,1.1-1.9,1.7c1.8-1.5-2.2,1.4-1.9,1.2c-4.5,2.9-9.5,4.2-14.8,5.3c-9.5,1.9-22.7,1.8-32,0.4
				c-5-0.7-7.6-2.1-9.2-4.7c-0.7-1.4-0.8-1.6-0.4-0.7c-0.5-1.3-0.7-2.6-1-3.9c0.4,2.1,0-2.2,0-2.2c0,0.1,0.5-4.2,0.1-2.2
				c1.8-10.5,11-18.3,18.3-25.3C1193,951.5,1175.3,933.8,1163.7,945L1163.7,945z"/>
		</g>
	</g>
	<g>
		<g>
			<path fill="#FFFFFF" d="M1021,994c16.1,0,16.1-25,0-25S1004.9,994,1021,994L1021,994z"/>
		</g>
	</g>
	<g>
		<g>
			<path fill="#FFFFFF" d="M1193.4,990c16.1,0,16.1-25,0-25S1177.3,990,1193.4,990L1193.4,990z"/>
		</g>
	</g>
	<polygon fill="none" stroke="#FFFFFF" stroke-width="40" stroke-miterlimit="10" points="6083.8,1485.2 5394.2,1485.2 
		5342.1,1048.2 6115.9,1048.2 	"/>
	<g>
		<g>
			<path fill="#FFFFFF" d="M5768.1,1208.5c-32.5,4.2-67.9,16.9-80.7,50c-10.1,26.1,2.9,62.9,32.2,69.2c6.7,1.4,13.5-1.9,15.4-8.7
				c1.7-6.3-2.1-14-8.7-15.4c-1.1-0.2-2.2-0.5-3.3-0.9c-3.4-1,2,1.1-1.1-0.4c-1-0.5-1.9-1.1-2.8-1.7c-1.2-0.8-1.2-0.8-0.1,0
				c-0.6-0.5-1.1-1-1.6-1.5c-0.8-0.7-1.5-1.6-2.2-2.4c1.8,2-0.5-0.7-0.7-1c-0.6-0.9-1.2-1.9-1.7-2.9c-0.4-0.7-0.7-1.3-1-2
				c0.5,1.2,0.5,1.2,0-0.2c-3.7-9.8-3.4-16.9,0.3-26.6c-0.9,2.4,0.6-1,0.7-1.2c0.6-1.1,1.3-2.2,2-3.2c1.6-2.4,3-3.9,5.3-6.3
				c4-4.1,8.1-6.7,13.7-9.7c9.7-5.2,24.1-8.8,34.5-10.2c6.8-0.9,12.5-5,12.5-12.5C5780.6,1214.8,5774.8,1207.6,5768.1,1208.5
				L5768.1,1208.5z"/>
		</g>
	</g>
	<g>
		<g>
			<path fill="#FFFFFF" d="M5752.3,1225.7c-26.8,4.3-55.4,14.6-69.1,39.9c-6.5,12.1-8.6,26-5.7,39.4c3.2,14.4,14.5,24.8,27,31.5
				c24.9,13.5,59.2,27,83.3,5.1c18-16.3,18.7-46.4,3-64.2c-7.8-8.8-19.4-13.7-29.7-19c-2.4-1.2-4.9-2.5-7.2-3.9
				c-1-0.6-1.9-1.2-2.9-1.8c-0.6-0.4-1.2-0.8-1.8-1.3c1.1,0.9,1.1,0.8,0-0.1c-0.8-0.7-1.5-1.4-2.3-2.2c-0.9-1.1-0.9-1,0,0.2
				c-0.4-0.5-0.8-1.1-1.1-1.7c-0.3-0.4-1.6-3.4-0.5-0.7c-0.2-0.6-1.1-4.8-0.7-1.9c-0.9-7.1-7.5-15.5-15.8-12.1
				c-18.3,7.6-34.5,25.3-28.9,46.5c4.6,17.7,28.3,29.9,44.2,18.5c-5.7-1.5-11.4-3-17.1-4.5c2.9,4.6,5.8,9.2,8.8,13.8
				c3.6,5.7,11.1,8,17.1,4.5c5.7-3.3,8.1-11.3,4.5-17.1c-2.9-4.6-5.8-9.2-8.8-13.8c-3.4-5.3-11.4-8.6-17.1-4.5
				c-0.6,0.5-1.3,0.9-1.9,1.3c2.3-1.4-2,0,1-0.3c-3.3,0.3,2.2,0.7-1.1,0c-3.3-0.7,1.8,1.1-1.3-0.4c-0.7-0.4-1.4-0.8-2-1.2
				c2,1.3-0.9-1-1.1-1.2c1.6,1.6-0.6-1.1-0.8-1.3c1.2,2-0.3-1-0.4-1.4c0.1,1.4,0.2,1.3,0.1-0.4c-0.1-3.5-0.5,1.2,0.3-2.2
				c0.4-1.5,1.4-3.5,3-5.7c1.4-2,6.3-5.4,8.4-6.3c-5.3-4-10.5-8-15.8-12.1c1.6,12.6,7.7,21.2,17.9,28.5c8,5.8,17.5,9.3,26.1,14.2
				c2.1,1.2,4,2.5,6,3.9c-2-1.5,0.9,0.8,1.1,1c0.9,0.8,1.7,1.6,2.4,2.4c2.5,2.6-1.1-1.8,0.9,1.2c0.6,1,1.2,2,1.7,3
				c-1.2-2.3,0.3,1,0.4,1.3c0.5,1.5,0.8,3,1,4.5c-0.5-2.8-0.1,1-0.1,1.3c0,1.2,0,2.3-0.1,3.5c-0.2,3.8,0.5-2.4-0.2,1.3
				c-0.2,1.2-0.6,2.3-0.9,3.4c-0.9,3.1-3.1,6.6-5.8,9.2c-2.6,2.5,1.9-1.2-1.1,0.9c-0.9,0.7-2,1.2-3,1.8c-1.3,0.7-3.6,1.4-5.8,1.6
				c-7.1,0.8-14-1.1-20.7-3.4c-6.2-2.1-12.1-4.9-18-7.7c-6-2.9-11.6-5.9-16.2-10.9c0.6,0.7-1.6-2.4-1.4-2.1c0.1,0.1-1.8-3.8-1.1-1.9
				c-0.5-1.3-0.8-2.6-1.2-3.9c0,0-0.6-4.2-0.4-2.1c-0.6-6.1,0.2-9.7,2.5-15.9c1.2-3.4,4.5-8.1,7.4-11.1c4.4-4.6,9.8-7.8,15.5-10.6
				c9.8-4.9,21.4-7.1,32.3-8.9c6.7-1.1,10.4-9.4,8.7-15.4C5765.7,1227.3,5759,1224.6,5752.3,1225.7L5752.3,1225.7z"/>
		</g>
	</g>
	<g>
		<g>
			<path fill="#FFFFFF" d="M5597.4,1048.4c-14.2-25.4-23.4-53.8-25.9-82.7c-1.1-13.1,0.4-26.5,5.9-37.5
				c5.4-10.7,13.1-18.9,22.7-26.6c20.4-16.3,49.4-22.6,75.3-25.9c31.8-4,63.8-6.4,95.7-9.5c13.2-1.3,26.4-2.7,39.6-3.7
				c12.3-0.9,24.6-1,36.5,2.4c20.1,5.8,31.5,24,40.1,42.3c10.3,21.7,18.1,47.3,23.5,71.6c5.6,25.4,7.8,52.1,3.4,77.8
				c-1.1,6.7,1.7,13.4,8.7,15.4c6.1,1.7,14.2-2,15.4-8.7c5.4-31.7,2.9-63.5-4.2-94.7c-6.4-27.9-15.7-56.6-29.2-81.9
				c-12.9-24.3-33.4-43.5-61.1-48.1c-15.1-2.5-30.2-1.4-45.3,0.1c-16.3,1.6-32.5,3.2-48.8,4.7c-31.9,3.1-64.1,5-95.6,10.6
				c-28.4,5-55.6,15.4-77.3,34.9c-21.6,19.4-32.1,46.2-30.4,75c1.8,31,11.2,61.7,25.2,89.3c1.4,2.7,2.8,5.3,4.3,7.9
				C5583.7,1075.1,5605.3,1062.5,5597.4,1048.4L5597.4,1048.4z"/>
		</g>
	</g>
	<g>
		<g>
			<path fill="#FFFFFF" d="M5626.2,820.3c7.9,9.4,15.8,18.9,23.8,28.3c4.4,5.2,13.2,4.5,17.7,0c5.1-5.1,4.4-12.5,0-17.7
				c-7.9-9.4-15.8-18.9-23.8-28.3c-4.4-5.2-13.2-4.5-17.7,0C5621.1,807.7,5621.8,815.1,5626.2,820.3L5626.2,820.3z"/>
		</g>
	</g>
	<g>
		<g>
			<path fill="#FFFFFF" d="M5751.4,780.3c-2.3,15.9-1.8,31.5,2.4,47c4.3,15.5,28.4,8.9,24.1-6.6c-3-10.9-4.1-22.5-2.4-33.7
				c1-6.7-1.6-13.4-8.7-15.4C5760.8,769.9,5752.4,773.5,5751.4,780.3L5751.4,780.3z"/>
		</g>
	</g>
	<g>
		<g>
			<path fill="#FFFFFF" d="M5815.2,792.3c-3,9.3-5.9,18.5-8.9,27.8c-4.9,15.4,19.2,21.9,24.1,6.6c3-9.3,5.9-18.5,8.9-27.8
				C5844.2,783.5,5820.1,777,5815.2,792.3L5815.2,792.3z"/>
		</g>
	</g>
	<g>
		<g>
			<path fill="#FFFFFF" d="M5682.9,927.4c-13.4,0-26.9-0.1-40.3-0.1c-4.3,0-8.7,2.4-10.8,6.2c-6.7,12-12.1,24.7-16.3,37.9
				c-2.1,6.6-3.8,13.4-4.6,20.3c-0.9,8.3,4.1,15.2,10.4,19.9c4.7,3.4,11.5,4.2,17.1,4.7c7.3,0.6,14.8,0.5,22.1,0.7
				c13.2,0.4,26.6,1.5,39.9,0.7c12.4-0.7,24-3.9,33.5-12.1c10-8.6,12.4-22.6,9.7-34.9c-6.3-28.4-39-36.6-63.7-29.8
				c-15.5,4.3-8.9,28.4,6.6,24.1c7.8-2.2,14.7-2.4,22.5,0.3c6.3,2.2,9.3,7.2,10.7,13.4c-0.4-1.7,0,2.6,0,3.2c0.1-1.8-0.7,2.4-0.9,3
				c0.7-2.2-2.3,2.9-0.9,1.2c-1.8,2.2-1,1.4-3.3,2.9c-5.2,3.2-12.3,3.8-19.9,3.9c-10.1,0.2-20.3-0.5-30.4-0.8
				c-5.9-0.2-11.8-0.3-17.6-0.5c-2.4-0.1-4.8-0.1-7.1-0.2c-0.9,0-1.7-0.1-2.5-0.2c2.4,0.2-1.6-0.4-1.7-0.5c-1.1-0.3-1.4-0.9-0.7-0.2
				c0.8,0.7,1.2,1.7,1.2,2.8c-0.2-1.5,0.1-1.5,0.4-3c1.2-5.3,2.8-10.5,4.5-15.7c3.3-9.9,7.6-19.3,12.7-28.4
				c-3.6,2.1-7.2,4.1-10.8,6.2c13.4,0,26.9,0.1,40.3,0.1C5699,952.5,5699,927.5,5682.9,927.4L5682.9,927.4z"/>
		</g>
	</g>
	<g>
		<g>
			<path fill="#FFFFFF" d="M5805.5,943.4c-10.4,9.9-20.6,20.7-24.4,35c-3.5,13.1-0.3,29.3,10.6,38.1c11.9,9.6,28.2,9.4,42.7,9.2
				c14.5-0.2,29.3-2.8,41.6-10.6c21-13.3,29.4-41.8,21.7-64.9c-8.5-25.6-35.1-38.3-60.8-34.8c-10.8,1.5-20.6,6.4-28.6,13.7
				c-5,4.6-4.6,13,0,17.7c5,5,12.6,4.6,17.7,0c5.1-4.6,12.5-7,19.4-7.1c5-0.1,6.6,0.2,12,2c2.5,0.8,7.1,3.5,8.9,5
				c3.6,3.1,4.8,4.9,7.1,9.7c-0.4-1.1-0.4-0.9,0.2,0.5c0.4,1.2,0.8,2.4,1.1,3.6c0.3,1.2,0.5,2.5,0.8,3.7c-0.4-2.5,0.1,1.6,0.1,1.7
				c0.1,2.1,0,4.2-0.1,6.4c-0.3,4,0.5-2.3-0.3,1.7c-0.2,1.3-0.6,2.5-0.9,3.7c-1,3.8-2.3,6.4-5.3,10.7c0.7-0.9,0.6-0.7-0.4,0.4
				c-0.8,1-1.7,1.8-2.6,2.7c-0.6,0.6-1.2,1.1-1.9,1.7c1.8-1.5-2.2,1.4-1.9,1.2c-4.5,2.9-9.5,4.2-14.8,5.3c-9.5,1.9-22.7,1.8-32,0.4
				c-5-0.7-7.6-2.1-9.2-4.7c-0.7-1.4-0.8-1.6-0.4-0.7c-0.5-1.3-0.7-2.6-1-3.9c0.4,2.1,0-2.2,0-2.2c0,0.1,0.5-4.2,0.1-2.2
				c1.8-10.5,11-18.3,18.3-25.3C5834.9,950,5817.2,932.3,5805.5,943.4L5805.5,943.4z"/>
		</g>
	</g>
	<g>
		<g>
			<path fill="#FFFFFF" d="M5662.9,992.5c16.1,0,16.1-25,0-25S5646.7,992.5,5662.9,992.5L5662.9,992.5z"/>
		</g>
	</g>
	<g>
		<g>
			<path fill="#FFFFFF" d="M5835.2,988.5c16.1,0,16.1-25,0-25S5819.1,988.5,5835.2,988.5L5835.2,988.5z"/>
		</g>
	</g>
	<g>
		<g>
			<path fill="#FFFFFF" d="M1950.3,870.3c-5.8,17.1-4.5,39.6,10.8,51.5c14.7,11.3,36.2,11.7,47.4-4.6c8.5-12.4,3.5-33.9-10.5-39.9
				c-9.4-4.1-21-2.6-31-2.8c-10.5-0.2-21-0.5-31.6-0.7c-16.1-0.4-16.1,24.7,0,25c14.5,0.3,28.9,0.6,43.4,0.9
				c3.3,0.1,6.6,0.1,9.9,0.2c-0.7,0-3.7-1.3-1.6-0.2c-2.3-1.2-0.3-0.1,0.4,0.6c-2.3-2.6,0.6,2-0.7-1.2c0.4,1,0.6,2,0.9,3
				c-0.6-2.9-0.1,0.2-0.1,0.9c0,3.3,0.6-2.4-0.2,0.8c-0.5,1.4-0.4,1.3,0.1-0.1c-1.4,2.8,1.6-1.5-0.5,0.8c1.6-1.6-1,0.5-1.5,0.8
				c2.2-1.1-2.4,0.2,0.3-0.1c-0.8,0.1-1.7,0.1-2.5,0.1c-3.6,0,1.8,0.5-1.7-0.3c0,0-3.7-1.5-1.9-0.6c0.1,0-3.5-2.2-1.9-0.9
				c-7.3-5.6-6.6-16.8-3.4-26.3c2.2-6.5-2.4-13.6-8.7-15.4C1958.8,859.7,1952.5,863.8,1950.3,870.3L1950.3,870.3z"/>
		</g>
	</g>
	<g>
		<g>
			<path fill="#FFFFFF" d="M1912.9,739.1c2.6,19.1,10.8,36.3,22.6,51.4c6.2,8,18.2,2.4,20.9-5.5c7.7-22.8,3.6-49.6-11-68.9
				c-4.1-5.4-10.7-8.2-17.1-4.5c-5.3,3.1-8.6,11.7-4.5,17.1c11.3,14.8,14.3,32.4,8.5,49.6c7-1.8,13.9-3.7,20.9-5.5
				c-9.1-11.7-14.1-25.9-16.1-40.4c-0.9-6.8-9.5-10.4-15.4-8.7C1914.4,725.7,1912,732.4,1912.9,739.1L1912.9,739.1z"/>
		</g>
	</g>
	<g>
		<g>
			<path fill="#FFFFFF" d="M1812.2,597c-13.2,26.3,7.4,53,32.6,61.2c13.5,4.3,28.9,1.4,41.8-3.4c13.8-5.1,26.3-12.9,39.1-20
				c11.3-6.3,23.9-11.8,36.9-12.3c5.4-0.2,10.5,0.7,15.4,3.2c1.1,0.6,2.2,1.2,3.2,1.9c0.1,0,3.2,2.4,1.4,1c2.2,1.8,4.2,3.9,6.1,6
				c0,0,2.5,3.2,1.1,1.3c0.7,1,1.4,2,2.1,3.1c1.4,2.1,2.7,4.3,3.9,6.5c2.8,4.9,5.2,10,7.6,15.1c5,10.5,10.1,20.6,17.3,29.8
				c34.8,44.4,97.4,23.8,139.6,3.7c12-5.7,23.7-11.8,33.8-20.6c11.2-9.7,17.3-23.3,19.9-37.6c2.5-14.4,2.9-29.1,5.4-43.5
				c2.6-14.8,6.2-29.4,10-44c7.6-29,16.3-57.7,20.4-87.5c4.1-29.6,3.2-59.1-5-88c-15.1-53.5-51.1-100.2-93.5-135.1
				c-58-47.7-131.2-75.7-206.3-78.1c-4-0.1-9.1,2.4-10.8,6.2c-15.6,34.1-13.3,75.1,8,106.4c1.5-5.7,3-11.4,4.5-17.1
				c-55.7,25.8-114.9,44.1-175.4,54.8c-23.4,4.2-48.5,7.4-66.8,24.2c-21.7,19.9-14.5,53.1-9.6,78.6
				c14.2,74.2,56.7,143.5,116.4,189.7c5.4,4.2,12.4,5.3,17.7,0c4.4-4.4,5.4-13.5,0-17.7c-40.5-31.4-72.8-73.3-92.4-120.3
				c-9.7-23.4-16.9-49.2-20.1-73.6c-0.9-6.6-1.6-13.3-1.7-20c-0.1-3.2,0.3-6.1,1.1-9.2c0-0.1,1.5-3.9,0.5-1.7
				c0.7-1.5,1.5-2.9,2.4-4.3c1.3-2,4.9-5.3,7.7-7.2c5.2-3.4,8.6-4.6,13.5-6.3c15.2-5.2,31.4-6.8,47.1-9.8
				c19.5-3.7,38.8-8.2,57.8-13.5c39.2-10.8,77.5-25.1,114.4-42.2c5.9-2.7,8.1-11.9,4.5-17.1c-16.2-23.8-19.8-55.1-8-81.2
				c-3.6,2.1-7.2,4.1-10.8,6.2c104.2,3.4,209.3,62,259.5,155.3c12.5,23.1,20.7,49,22.5,75.1c2,29.3-3.9,58.2-11.1,86.5
				c-7.4,29.2-16.3,58-21.3,87.7c-2.4,14.3-2.6,29.1-5.4,43.3c-2.4,12.5-8.7,21-18.7,27.7c-10.4,7-22.2,12.2-33.6,17.2
				c-10.2,4.5-22.6,8.8-34.1,11.6c-11.1,2.7-21.4,3.8-33.5,2.4c2.2,0.3-2.1-0.4-2-0.4c-1.3-0.3-2.6-0.6-3.9-0.9
				c-1.3-0.3-2.6-0.8-3.8-1.2c0.1,0-3.9-1.5-2-0.7c-5.5-2.4-9.6-5.3-13.3-8.8c-7-6.6-11.7-15.6-16.5-25.4
				c-4.7-9.7-9.1-19.6-15.1-28.6c-7-10.5-16.1-18.8-27.8-23.8c-13.9-5.9-29.6-4.7-43.8-0.6c-26.3,7.6-47.1,27.7-73.9,33.5
				c-5.1,1.1-11,0.9-14.5,0c-3.1-0.8-3.5-1-5.9-2.3c-2.3-1.2-4.2-2.5-5.4-3.5c-1-0.9-2-1.8-3-2.8c0.1,0.1-2.7-3.2-1.5-1.6
				c-0.8-1-1.5-2.2-2.1-3.3c0,0-1.7-3.8-0.9-1.6c-0.5-1.2-0.8-2.4-1.1-3.6c-0.9-3.6,0,2.2-0.1-1.5c0-0.3,0.5-4,0-1.6
				c0.2-0.8,0.4-1.6,0.7-2.4c-0.5,1-0.4,0.8,0.3-0.6c3-6.1,1.7-13.5-4.5-17.1C1823.7,589.3,1815.2,590.9,1812.2,597L1812.2,597z"/>
		</g>
	</g>
	<g>
		<g>
			<path fill="#FFFFFF" d="M4722.3,853.7c-1.8,17.6,4.3,36.7,20.1,46.2c14.6,8.8,37.9,5.7,45.8-10.8c7.1-15-0.7-36.4-18-40
				c-5.4-1.1-10.4,0.1-15.7,1.2c-5.2,1.1-10.3,2.1-15.5,3.2c-10.3,2.1-20.6,4.3-30.9,6.4c-6.7,1.4-10.4,9.1-8.7,15.4
				c1.9,6.9,8.7,10.1,15.4,8.7c14.2-2.9,28.3-5.9,42.5-8.8c2.2-0.4,6.2-1.5,7.4-1.7c3.1-0.3-2-0.7,0.8,0.2c-2.9-0.9,1,1.5-1.1-0.4
				c2.4,2.1-1-1.9,0.7,0.9c1.8,2.8-0.5-2.1,0.5,1.1c0.2,0.5,0.5,3.9,0.3,1.1c0.1,0.7-0.5,3.8,0,1.1c-0.4,1.4-0.4,1.4,0.1,0.1
				c-1.3,2.6,1.3-1.1-1,1.2c1.4-1.4-1.4,0.7-1.6,0.8c2-1-1.6,0.3-1.8,0.3c2.4-0.5-4.6-0.5-2.3-0.1c-3.3-0.6-3.2-0.7-5.5-2.1
				c0.7,0.7,0.6,0.6-0.5-0.4c0.3,0.2-2.7-3.1-1.8-1.8c-1.6-2.2-2.5-4.4-3.1-6.1c-1.8-5.3-1.7-9.6-1.1-15.6
				c0.7-6.8-6.2-12.5-12.5-12.5C4727.5,841.2,4723,846.9,4722.3,853.7L4722.3,853.7z"/>
		</g>
	</g>
	<g>
		<g>
			<path fill="#FFFFFF" d="M4774,754.7c6.7,17.9,17.5,33.8,32.3,46c8.8,7.1,20.2,2.4,21.3-8.8c2.4-23.9-7.9-49-26.4-64.4
				c-5.2-4.4-12.5-5.1-17.7,0c-4.5,4.5-5.2,13.3,0,17.7c14.3,11.9,20.9,28.5,19.1,46.7c7.1-2.9,14.2-5.9,21.3-8.8
				c-11.4-9.3-20.7-21-25.9-34.9c-2.4-6.4-8.3-10.7-15.4-8.7C4776.6,741,4771.6,748.4,4774,754.7L4774,754.7z"/>
		</g>
	</g>
	<g>
		<g>
			<path fill="#FFFFFF" d="M4645,641.8c-6.3,25.9,16.3,47.9,40.7,51.3c28.9,4,51.9-15.9,71.8-34.1c10.1-9.2,20.1-17.9,32.5-23.8
				c5.1-2.4,10.5-3.6,15.9-3.7c2.8-0.1,5.1,0.3,7.7,1c1.2,0.3,2.4,0.7,3.6,1.1c1.4,0.5,1.5,0.6,0.4,0.2c0.7,0.3,1.5,0.7,2.2,1.1
				c5.2,2.7,6.2,3.8,10.2,7.6c4,3.8,7.6,8.1,11.1,12.4c6.9,8.5,13.4,17.3,21.2,25c19.9,19.6,46.7,24.8,73.4,18
				c27.3-7,51.4-24.3,73.1-41.7c10.7-8.6,20.9-17.6,28.3-29.4c8.5-13.6,9.5-29.7,7.8-45.2c-1.7-15.4-3.7-30.5-4.2-46
				c-0.4-15.5,0.1-30.9,0.7-46.4c1.2-31.2,2.5-62.4-1.8-93.5c-4-28.2-13.6-55-28.6-79.2c-28.7-46.4-74.3-81.7-123.2-104.7
				c-65.6-30.8-140.2-40.1-211.4-26.1c-4,0.8-7.9,4.8-8.7,8.7c-7.6,36.8,4.3,76.1,32,101.8c0-5.9,0-11.8,0-17.7
				c-46.7,36.2-98.3,66.3-152.5,89.9c-22.9,10-48.2,18-64,38.8c-18.2,24-5.2,53.4,5.2,77.8c30,70.7,87.9,130.1,157.6,162.3
				c6.2,2.9,13.4,1.8,17.1-4.5c3.2-5.5,1.7-14.2-4.5-17.1c-45.2-20.9-84.7-53.1-114-92.8c-14.6-19.8-27.3-42.3-36.3-64.6
				c-2.3-5.6-4.3-11.4-6.2-17.1c-1.1-3.5-2.1-6.9-2.9-10.5c-0.4-1.6-0.4-2.2-0.5-3.8c-0.1-0.7,0.3-5.9,0-4.2
				c0.9-5.5,1.9-7.1,5.3-11.9c-1.3,1.8,1.3-1.4,1.3-1.4c0.9-1,1.8-1.9,2.7-2.8c2.5-2.4,3.6-3.1,5.9-4.7
				c14.7-10.3,29.7-14.9,45.9-21.9c18.6-8,36.8-17,54.7-26.5c36.2-19.4,70.4-42.1,102.8-67.3c5.3-4.1,4.5-13.5,0-17.7
				c-21.3-19.7-31.2-49.9-25.5-77.5c-2.9,2.9-5.8,5.8-8.7,8.7c104.1-20.4,221.7,15.3,290.8,97.6c16.2,19.4,28.7,42.1,35.8,66.3
				c8.4,29,8.6,59.5,7.8,89.4c-0.9,30.9-3.1,61.8-0.6,92.7c1.2,14.4,5.7,29.9,3.7,44.4c-1.8,12.8-10.1,21.7-19.6,30.2
				c-19.1,16.9-41.5,33.4-65.8,41.6c-11.3,3.8-22.5,5.3-33.2,2.8c-11.1-2.6-17.9-8.3-25.5-16.3c-14.9-15.8-25.9-36.3-46.2-46.2
				c-29.1-14.2-58.5,1.4-80.9,20.5c-16.5,14.1-31.4,32.2-53.4,36.2c1.2-0.2,1.1-0.2-0.5-0.1c-1.3,0.1-2.6,0-3.9,0
				c-4-0.2,2.2,0.5-1.8-0.2c-1.3-0.2-2.5-0.6-3.8-0.9c-3.9-1-6.6-2.4-10.9-5.5c0.9,0.7,0.7,0.5-0.4-0.4c-0.9-0.8-1.8-1.7-2.6-2.6
				c-2.6-2.7,1.1,1.8-1-1.3c-0.7-1-1.2-2-1.7-3.1c0.5,1.2,0.5,1.1,0-0.2c-0.4-1.1-0.6-2.2-0.8-3.4c0.5,2.7,0.2-0.9,0.2-1.3
				c0.1-3.6-0.6,2.1,0.3-1.5C4672.9,632.8,4648.8,626.1,4645,641.8L4645,641.8z"/>
		</g>
	</g>
	<g>
		<g>
			<path fill="#FFFFFF" d="M959.7,735.9c-13.4,11.7-22.5,30-17.2,47.9c5.6,18.7,26.2,30.4,44.3,21.6c13.6-6.5,19.5-27.5,10.7-39.8
				c-5.9-8.2-16.8-12.8-25.3-18c-9-5.5-18-11-26.9-16.5c-13.8-8.4-26.3,13.2-12.6,21.6c12.3,7.6,24.7,15.1,37,22.7
				c2.8,1.7,5.6,3.4,8.4,5.2c-0.6-0.4-2.3-2.7-1.1-0.6c-1.6-2.7,0,1.8-0.4-1.5c0.1,0.7,0.1,1.4,0,2.1c0.1-2.9-0.1,0.1-0.3,0.9
				c-0.9,3.2,1.1-2-0.5,1c-1.6,2.9,1.6-1.5-0.7,0.9c-1.1,1-1,1,0,0c-2.6,1.8,2.1-0.5-0.9,0.4c2.6-0.7-1.9-0.2,0.1,0.1
				c0,0-3.8-1.3-2.1-0.5c-3.3-1.6-5.1-4.3-6.1-7.5c-0.8-2.8,0-7.1,1.6-10.5c2.3-4.8,5.5-8.2,9.6-11.7c5.1-4.5,4.6-13.1,0-17.7
				C972.3,730.8,964.8,731.4,959.7,735.9L959.7,735.9z"/>
		</g>
	</g>
	<g>
		<g>
			<path fill="#FFFFFF" d="M1057.9,678.6c-7.4,17.9-9,37-6.4,56.1c1.4,10.1,14.7,10.9,20.9,5.5c18.1-15.8,28-41,25.1-64.9
				c-0.8-6.8-5-12.5-12.5-12.5c-6.2,0-13.3,5.7-12.5,12.5c2.3,18.2-3.7,35-17.7,47.2c7,1.8,13.9,3.7,20.9,5.5
				c-2-14.5,0.9-29.3,6.4-42.8c2.6-6.3-2.8-13.7-8.7-15.4C1066.1,667.9,1060.5,672.3,1057.9,678.6L1057.9,678.6z"/>
		</g>
	</g>
	<g>
		<g>
			<path fill="#FFFFFF" d="M1042.2,505.3c-21.3,13.8-21.1,42.4-8.1,62c16.2,24.4,47.3,27.2,74,27.5c12.4,0.2,24.6,0.2,35.5,2.5
				c5.2,1.1,10.5,2.9,14.2,4.7c5.6,2.8,8.3,4.9,12.3,9.7c-1.2-1.4,1.6,2.5,1.3,2.1c0.8,1.3,1.5,2.7,2.2,4c0.6,1.2,1.5,4.8,2,6.9
				c1.2,5.1,1.1,11.8,0.9,18c-0.5,13.3-2.6,26.5-1.9,39.9c1.3,25.1,14.5,45.6,35.4,59.1c18.9,12.2,42.1,17.4,64.1,20.4
				c26.2,3.6,57.7,8.3,80.9-7.4c12-8.1,20.1-20.1,28.4-31.7c7.2-10.1,15.2-19.6,23.7-28.9c35.3-38.6,77.5-71.7,103.4-118
				c29.1-52.2,30.6-115,17.4-172.1c-19.9-86.1-75.8-163-150.5-209.8c-3.5-2.2-9.1-2.5-12.6,0c-30.6,21.6-49.2,58.2-46.5,95.8
				c4.2-4.2,8.3-8.3,12.5-12.5c-61.7-5.8-122.6-20-180.7-41.5c-24.3-9-51.7-20.1-77.2-9c-13.5,5.9-21.3,18-27.3,30.9
				c-6.2,13.4-11.5,27.3-15.8,41.5c-20.7,68.2-17.6,144.2,9.1,210.3c2.5,6.3,8.2,10.7,15.4,8.7c6-1.7,11.3-9,8.7-15.4
				c-21.1-52.2-27-109.9-16.8-165.3c2.6-14.1,6.3-27.9,10.8-41.5c4.3-12.8,9.3-26,16.3-37.6c3-4.9,5.9-7,10.9-9.4
				c-1.8,0.9,2.2-0.6,2.1-0.6c1.3-0.4,2.6-0.7,4-0.9c-2.1,0.4,2.2-0.2,2.1-0.2c1.9-0.1,3.8-0.1,5.6-0.1c10.8,0.3,23.1,4.5,34.3,8.6
				c31.4,11.5,62.8,22,95.4,29.7c33.9,8.1,68.4,13.6,103.1,16.8c6.5,0.6,12.9-6.2,12.5-12.5c-2-28.5,10.6-57.6,34.1-74.2
				c-4.2,0-8.4,0-12.6,0c86.3,54.1,146.2,153.2,146.2,256.4c0,27.9-5.1,56.1-17,81.4c-10.9,23.2-26.7,42.8-44.1,61.3
				c-17.8,19.1-37.1,36.8-55.1,55.8c-9.3,9.8-18.2,20.1-26.5,30.9c-7.7,10-14.2,21-23.6,29.6c-9.1,8.4-22.1,9.4-34.1,9.1
				c-6.2-0.1-12.5-0.7-18.7-1.2c-5.5-0.5-11.5-1.2-15.2-1.7c-11.1-1.6-22.1-4-32.8-7.5c-9.3-3-17.5-6.8-26.4-13.3
				c1.9,1.4-1.2-1-1.2-1.1c-0.9-0.8-1.8-1.6-2.7-2.4c-1.7-1.6-3.3-3.4-4.9-5.2c-2.5-2.9,1.3,1.9-0.9-1.3c-0.7-1-1.3-2-1.9-3
				c-0.6-1-1.2-2.1-1.8-3.2c-0.4-0.7-0.7-1.5-1.1-2.2c0.4,1.1,0.4,1-0.2-0.4c-4.6-11.6-3.8-23.5-2.9-36c2-26.6,4-55.8-19.2-74.4
				c-13.5-10.8-29.9-14.9-46.8-16.7c-16.3-1.8-33.2,0.2-49.2-2.2c-8.1-1.2-15.8-3.4-22.8-7.6c-0.7-0.4-1.3-0.9-2-1.3
				c1,0.8,0.9,0.7-0.2-0.3c-1.2-1-2.3-2.2-3.4-3.4c-0.9-1.1-1-1.2-0.3-0.3c-0.5-0.7-0.9-1.3-1.4-2c-0.9-1.3-1.7-2.8-2.4-4.2
				c-0.6-1.4-0.7-1.5-0.2-0.3c-0.3-0.7-0.6-1.5-0.8-2.3c-0.5-1.5-0.9-3-1.3-4.6c-0.2-0.8-0.3-1.5-0.4-2.3c0.2,1.4,0.2,1.4,0.1-0.1
				c-0.1-1.5-0.1-3,0-4.5c0.1-1.5,0.1-1.5,0,0c0.1-0.7,0.3-1.4,0.5-2.1c0.2-0.7,0.4-1.4,0.6-2.1c-0.6,1.3-0.6,1.3,0,0
				c0.3-0.5,2.8-4,1.1-1.9c0.5-0.6,1-1.1,1.5-1.6c2.5-2.4-1.9,1.1,1.1-0.8c5.7-3.7,8-11,4.5-17.1
				C1056,504.1,1048,501.6,1042.2,505.3L1042.2,505.3z"/>
		</g>
	</g>
	<g>
		<g>
			<path fill="#FFFFFF" d="M6008.2,828.2c-13.4,11.7-22.5,30-17.2,47.9c5.6,18.7,26.2,30.4,44.3,21.6c13.6-6.5,19.5-27.5,10.7-39.8
				c-5.9-8.2-16.8-12.8-25.3-18c-9-5.5-18-11-26.9-16.5c-13.8-8.4-26.3,13.2-12.6,21.6c12.3,7.6,24.7,15.1,37,22.7
				c2.8,1.7,5.6,3.4,8.4,5.2c-0.6-0.4-2.3-2.7-1.1-0.6c-1.6-2.7,0,1.8-0.4-1.5c0.1,0.7,0.1,1.4,0,2.1c0.1-2.9-0.1,0.1-0.3,0.9
				c-0.9,3.2,1.1-2-0.5,1c-1.6,2.9,1.6-1.5-0.7,0.9c-1.1,1-1,1,0,0c-2.6,1.8,2.1-0.5-0.9,0.4c2.6-0.7-1.9-0.2,0.1,0.1
				c0,0-3.8-1.3-2.1-0.5c-3.3-1.6-5.1-4.3-6.1-7.5c-0.8-2.8,0-7.1,1.6-10.5c2.3-4.8,5.5-8.2,9.6-11.7c5.1-4.5,4.6-13.1,0-17.7
				C6020.8,823.2,6013.3,823.7,6008.2,828.2L6008.2,828.2z"/>
		</g>
	</g>
	<g>
		<g>
			<path fill="#FFFFFF" d="M6042,695.8c-7.4,17.9-9,37-6.4,56.1c1.4,10.1,14.7,10.9,20.9,5.5c18.1-15.8,28-41,25.1-64.9
				c-0.8-6.8-5-12.5-12.5-12.5c-6.2,0-13.3,5.7-12.5,12.5c2.3,18.2-3.7,35-17.7,47.2c7,1.8,13.9,3.7,20.9,5.5
				c-2-14.5,0.9-29.3,6.4-42.8c2.6-6.3-2.8-13.7-8.7-15.4C6050.2,685.1,6044.6,689.5,6042,695.8L6042,695.8z"/>
		</g>
	</g>
	<g>
		<g>
			<path fill="#FFFFFF" d="M6026.4,522.5c-21.3,13.8-21.1,42.4-8.1,62c16.2,24.4,47.3,27.2,74,27.5c12.4,0.2,24.6,0.2,35.5,2.5
				c5.2,1.1,10.5,2.9,14.2,4.7c5.6,2.8,8.3,4.9,12.3,9.7c-1.2-1.4,1.6,2.5,1.3,2.1c0.8,1.3,1.5,2.7,2.2,4c0.6,1.2,1.5,4.8,2,6.9
				c1.2,5.1,1.1,11.8,0.9,18c-0.5,13.3-2.6,26.5-1.9,39.9c1.3,25.1,14.5,45.6,35.4,59.1c18.9,12.2,42.1,17.4,64.1,20.4
				c26.2,3.6,57.7,8.3,80.9-7.4c12-8.1,20.1-20.1,28.4-31.7c7.2-10.1,15.2-19.6,23.7-28.9c35.3-38.6,77.5-71.7,103.4-118
				c29.1-52.2,30.6-115,17.4-172.1c-19.9-86.1-75.8-163-150.5-209.8c-3.5-2.2-9.1-2.5-12.6,0c-30.6,21.6-49.2,58.2-46.5,95.8
				c4.2-4.2,8.3-8.3,12.5-12.5c-61.7-5.8-122.6-20-180.7-41.5c-24.3-9-51.7-20.1-77.2-9c-13.5,5.9-21.3,18-27.3,30.9
				c-6.2,13.4-11.5,27.3-15.8,41.5c-20.7,68.2-17.6,144.2,9.1,210.3c2.5,6.3,8.2,10.7,15.4,8.7c6-1.7,11.3-9,8.7-15.4
				c-21.1-52.2-27-109.9-16.8-165.3c2.6-14.1,6.3-27.9,10.8-41.5c4.3-12.8,9.3-26,16.3-37.6c3-4.9,5.9-7,10.9-9.4
				c-1.8,0.9,2.2-0.6,2.1-0.6c1.3-0.4,2.6-0.7,4-0.9c-2.1,0.4,2.2-0.2,2.1-0.2c1.9-0.1,3.8-0.1,5.6-0.1c10.8,0.3,23.1,4.5,34.3,8.6
				c31.4,11.5,62.8,22,95.4,29.7c33.9,8.1,68.4,13.6,103.1,16.8c6.5,0.6,12.9-6.2,12.5-12.5c-2-28.5,10.6-57.6,34.1-74.2
				c-4.2,0-8.4,0-12.6,0c86.3,54.1,146.2,153.2,146.2,256.4c0,27.9-5.1,56.1-17,81.4c-10.9,23.2-26.7,42.8-44.1,61.3
				c-17.8,19.1-37.1,36.8-55.1,55.8c-9.3,9.8-18.2,20.1-26.5,30.9c-7.7,10-14.2,21-23.6,29.6c-9.1,8.4-22.1,9.4-34.1,9.1
				c-6.2-0.1-12.5-0.7-18.7-1.2c-5.5-0.5-11.5-1.2-15.2-1.7c-11.1-1.6-22.1-4-32.8-7.5c-9.3-3-17.5-6.8-26.4-13.3
				c1.9,1.4-1.2-1-1.2-1.1c-0.9-0.8-1.8-1.6-2.7-2.4c-1.7-1.6-3.3-3.4-4.9-5.2c-2.5-2.9,1.3,1.9-0.9-1.3c-0.7-1-1.3-2-1.9-3
				c-0.6-1-1.2-2.1-1.8-3.2c-0.4-0.7-0.7-1.5-1.1-2.2c0.4,1.1,0.4,1-0.2-0.4c-4.6-11.6-3.8-23.5-2.9-36c2-26.6,4-55.8-19.2-74.4
				c-13.5-10.8-29.9-14.9-46.8-16.7c-16.3-1.8-33.2,0.2-49.2-2.2c-8.1-1.2-15.8-3.4-22.8-7.6c-0.7-0.4-1.3-0.9-2-1.3
				c1,0.8,0.9,0.7-0.2-0.3c-1.2-1-2.3-2.2-3.4-3.4c-0.9-1.1-1-1.2-0.3-0.3c-0.5-0.7-0.9-1.3-1.4-2c-0.9-1.3-1.7-2.8-2.4-4.2
				c-0.6-1.4-0.7-1.5-0.2-0.3c-0.3-0.7-0.6-1.5-0.8-2.3c-0.5-1.5-0.9-3-1.3-4.6c-0.2-0.8-0.3-1.5-0.4-2.3c0.2,1.4,0.2,1.4,0.1-0.1
				c-0.1-1.5-0.1-3,0-4.5c0.1-1.5,0.1-1.5,0,0c0.1-0.7,0.3-1.4,0.5-2.1c0.2-0.7,0.4-1.4,0.6-2.1c-0.6,1.3-0.6,1.3,0,0
				c0.3-0.5,2.8-4,1.1-1.9c0.5-0.6,1-1.1,1.5-1.6c2.5-2.4-1.9,1.1,1.1-0.8c5.7-3.7,8.1-11,4.5-17.1
				C6040.1,521.4,6032.1,518.8,6026.4,522.5L6026.4,522.5z"/>
		</g>
	</g>
	<g>
		<g>
			<path fill="#FFFFFF" d="M2222.9,806c14.9,22.9,35.3,41.7,59.5,54.2c24.2,12.5,50.8,15.7,76.9,22.3c12.3,3.1,23.1,7.1,33.5,14.4
				c8.6,6,13.5,12.8,18.4,21.8c4.7,8.6,7.4,17.4,10,28.2c2.6,11,4.3,22.1,5.9,33.3c4.1,27.9,7.9,56.3,21.8,81.3
				c7.8,14.1,29.4,1.5,21.6-12.6c-5.2-9.4-8.2-18.1-11.2-29.3c-2.9-11.1-4.7-22.4-6.4-33.7c-3.3-22-5.7-44.4-13.7-65.3
				c-8.8-23.1-24.5-42.1-47.1-52.8c-24.3-11.5-51.5-13.4-77-21c-28.8-8.6-54.4-28.1-70.8-53.3c-3.7-5.7-11-8.1-17.1-4.5
				C2221.7,792.2,2219.2,800.2,2222.9,806L2222.9,806z"/>
		</g>
	</g>
	<g>
		<g>
			<path fill="#FFFFFF" d="M2289.9,810.8c-59.2,11.4-119.5,23.4-172.8,52.9c-45.4,25.2-84.3,64.3-101.7,113.8
				c-1.2,3.3-2.2,6.7-3.1,10.1c-4.3,15.6,19.9,22.2,24.1,6.6c12.9-46.9,49-83.4,90.7-107.5c51.6-29.8,111.7-40.8,169.5-51.9
				c6.7-1.3,10.4-9.2,8.7-15.4C2303.3,812.6,2296.5,809.5,2289.9,810.8L2289.9,810.8z"/>
		</g>
	</g>
	<g>
		<g>
			<path fill="#FFFFFF" d="M2228.4,773.9c-31-8.4-59.3,9.8-83.3,27.2c-22.3,16.2-44.6,32.8-64.3,52.1
				c-20.2,19.7-36.5,42.6-47.1,68.7c-11,27.1-14.5,56.6-20.5,85c-2.8,13.1-6.2,26.1-10.9,38.7c-2.4,6.4,2.6,13.7,8.7,15.4
				c7,1.9,13-2.4,15.4-8.7c10.3-27.5,14-56.7,20.2-85.3c3-13.6,6.5-27.4,12-40.3c5.3-12.3,12.5-23.8,20.6-34.5
				c15.5-20.5,36.1-37.6,56.4-53.1c11-8.4,22.1-16.6,33.4-24.4c11.6-8,23.9-15.1,37.9-17.7c4.9-0.9,10.1-0.3,14.9,1
				C2237.3,802.3,2243.9,778.1,2228.4,773.9L2228.4,773.9z"/>
		</g>
	</g>
	<g>
		<g>
			<path fill="#FFFFFF" d="M2275,789.1c31.4,9.6,62.9,19.3,94.3,28.9c15,4.6,30.1,8.8,44.9,14c11.7,4.1,21.8,10.4,28.6,20.6
				c7.3,11,11.2,23.6,15.4,36.2c5,15,9.3,30.1,13.2,45.4c7.7,30.1,13.3,60.7,16.6,91.6c0.2,1.9,0.4,3.8,0.6,5.6
				c0.7,6.8,5.2,12.5,12.5,12.5c6.3,0,13.2-5.7,12.5-12.5c-3.2-31.9-8.4-63.5-15.8-94.7c-3.6-15.3-7.9-30.5-12.6-45.6
				c-4.4-14.1-9-28.2-15.4-41.5c-6.2-13-15.6-24.1-27.7-31.9c-12.5-8.1-27.6-11.9-41.6-16.2c-31.4-9.6-62.9-19.3-94.3-28.9
				c-8.2-2.5-16.3-5-24.5-7.5C2266.2,760.3,2259.7,784.4,2275,789.1L2275,789.1z"/>
		</g>
	</g>
	<g>
		<g>
			<path fill="#FFFFFF" d="M2478.4,939.2c-9.5-44.6-44.9-78.5-84.1-98.9c-22.5-11.7-46.9-19.7-71.2-26.7c-25.5-7.3-51.2-14-76.7-21
				c-13.9-3.8-21.6,15.4-9.6,22.8c24.6,15.3,53.8,16.8,81.1,24.2c24.4,6.6,47.1,19.1,66.9,34.8c45.1,35.8,74.6,86,99.8,136.9
				c7,14.1,13.7,28.5,20.3,42.8c2.9,6.2,11.6,7.7,17.1,4.5c6.3-3.7,7.4-10.9,4.5-17.1c-25.3-54.2-51.4-108.9-91.6-154
				c-18-20.2-39.1-37.9-62.4-51.6c-11.8-7-24.4-12.6-37.4-17.1c-13-4.6-26.6-7.1-40.1-9.7c-15.8-3.1-31.8-6.6-45.6-15.2
				c-3.2,7.6-6.4,15.2-9.6,22.8c23.9,6.5,47.8,12.9,71.6,19.6c22.4,6.3,44.7,13.1,65.7,23.2c36.1,17.4,68.8,46.2,77.4,86.3
				c1.4,6.7,9.1,10.5,15.4,8.7C2476.5,952.7,2479.8,945.9,2478.4,939.2L2478.4,939.2z"/>
		</g>
	</g>
	<g>
		<g>
			<path fill="#FFFFFF" d="M1101.9,348c3.2,0,3.2-5,0-5S1098.6,348,1101.9,348L1101.9,348z"/>
		</g>
	</g>
	<g>
		<g>
			<path fill="#FFFFFF" d="M1125.9,381.7c-1.9,27.3-2.9,57.7,13.7,81.1c13.3,18.8,39.3,28.9,61.7,22.3c28.4-8.4,33.9-41.4,24.6-66
				c-8.8-23.4-28.2-40.5-51.4-49.2c-14.7-5.5-31.5-6-46.6-1.8c-15.5,4.3-8.9,28.4,6.6,24.1c9.2-2.6,18-2.4,27-0.1
				c5.7,1.4,8.4,2.6,12.9,5c4.5,2.4,8.8,5.4,11.6,7.8c3.5,3,7.9,7.8,9.5,10.1c2.7,3.7,5.7,9.6,6.6,12c1.9,5,2.9,9.9,3.1,15.1
				c0.1,2.9-0.2,5.3-0.9,8.1c-0.2,0.8-0.8,2.4-1.1,3.1c-0.2,0.4-3.1,4.6-1.5,2.7c-0.7,0.9-1.5,1.6-2.3,2.4c-2.5,2.4,1.9-1.2-1,0.7
				c-0.9,0.6-1.9,1.1-2.9,1.6c2.4-1.2-0.7,0.2-1.1,0.4c-1.1,0.4-2.1,0.6-3.2,0.8c-3.6,0.8,2.5-0.2-1.2,0.2c-2.3,0.2-4.6,0.1-7-0.1
				c-3.8-0.3,2.4,0.5-1.4-0.2c-1.2-0.2-2.3-0.5-3.5-0.8c-1.2-0.3-2.3-0.7-3.5-1.1c-3.7-1.3,2,1-1.5-0.6c-2.2-1-4.3-2.3-6.3-3.6
				c-3.2-2.1,1.6,1.5-1.3-1c-1.2-1-2.4-2.2-3.5-3.3c-0.1-0.1-2.6-3.1-1.1-1.1c-0.9-1.2-1.7-2.4-2.4-3.7c-1.4-2.2-2.8-4.8-3.6-7
				c-2.1-5.3-3.7-11.6-4.4-16.8c-1.7-13.6-0.8-27.4,0.1-41c0.5-6.8-6-12.5-12.5-12.5C1131.3,369.2,1126.4,374.9,1125.9,381.7
				L1125.9,381.7z"/>
		</g>
	</g>
	<g>
		<g>
			<path fill="#FFFFFF" d="M1323.8,370.5c-36.7,0.8-69,30-73.3,66.5c-4.2,35.9,22.2,72.1,57.1,80.3c15.7,3.7,22.3-20.4,6.6-24.1
				c-24.1-5.7-40.7-28.9-39-53.4c1.5-23.3,25.6-43.8,48.6-44.3C1339.9,395.2,1340,370.2,1323.8,370.5L1323.8,370.5z"/>
		</g>
	</g>
	<g>
		<g>
			<path fill="#FFFFFF" d="M1382.8,405.5c2.9,29,2,58.3-3.5,86.9c-1.3,6.7,1.8,13.5,8.7,15.4c6.2,1.7,14.1-2,15.4-8.7
				c5.9-30.9,7.6-62.3,4.4-93.6c-0.7-6.8-5.2-12.5-12.5-12.5C1389,393,1382.1,398.7,1382.8,405.5L1382.8,405.5z"/>
		</g>
	</g>
	<g>
		<g>
			<path fill="#FFFFFF" d="M1406.1,437.5c3.2-1.9-1.8,0.3,1.6-0.7c3.3-1-2-0.1,1.4-0.1c3.5,0-2-0.6,1.5,0.3c1.4,0.5,1.6,0.5,0.5,0
				c0.8,0.4,1.5,0.8,2.3,1.2c0,0,3.2,2.4,1.7,1.1c1,0.8,1.9,1.8,2.8,2.8c1,1.1,2.3,3.5,2.8,4.7c4.2,12-5,27.5-11,38.3
				c-2.8,5.1-1.9,10.9,2,15.1c10.1,11.1,20.2,22.2,30.3,33.3c4.6,5,13,4.6,17.7,0c5-5,4.6-12.6,0-17.7
				c-10.1-11.1-20.2-22.2-30.3-33.3c0.7,5,1.3,10.1,2,15.1c10.5-18.8,21.3-41.7,11.4-63c-8.4-18-30.8-29.4-49.1-18.8
				C1379.6,424,1392.1,445.6,1406.1,437.5L1406.1,437.5z"/>
		</g>
	</g>
	<g>
		<g>
			<path fill="#FFFFFF" d="M3871.4,349.8c-18.8,15.3-37.7,30.5-56.5,45.8c-4.9,4-4.9,13.7,0,17.7c12.7,10.2,25.3,20.4,38,30.6
				c5.3,4.3,12.5,5.2,17.7,0c4.4-4.4,5.3-13.4,0-17.7c-12.7-10.2-25.3-20.4-38-30.6c0,5.9,0,11.8,0,17.7
				c18.8-15.3,37.7-30.5,56.5-45.8c5.3-4.3,4.4-13.2,0-17.7C3883.9,344.6,3876.7,345.5,3871.4,349.8L3871.4,349.8z"/>
		</g>
	</g>
	<g>
		<g>
			<path fill="#FFFFFF" d="M4021.3,352.8c10.1,23.8,34.8,36,57.3,45.6c-1.9-4.7-3.8-9.4-5.7-14.1c-8,20-24.3,36.4-44.1,45.9
				c-6.1,2.9-7.7,11.6-4.5,17.1c3.6,6.2,11,7.4,17.1,4.5c25.8-12.4,45.1-34.5,55.6-60.8c1.9-4.7-1.1-12.1-5.7-14.1
				c-10.3-4.4-20.5-9-29.9-15.1c-8.1-5.3-14.4-12-18.4-21.5c-2.7-6.3-11.8-7.6-17.1-4.5C4019.4,339.5,4018.7,346.5,4021.3,352.8
				L4021.3,352.8z"/>
		</g>
	</g>
	<g>
		<g>
			<path fill="#FFFFFF" d="M4664.6,411.5c0,24,0,48,0,72c0,16.1,25,16.1,25,0c0-24,0-48,0-72
				C4689.6,395.3,4664.6,395.3,4664.6,411.5L4664.6,411.5z"/>
		</g>
	</g>
	<g>
		<g>
			<path fill="#FFFFFF" d="M4671.4,425.3c42.7,0.8,85.3,1.2,128,2.5c8.4,0.3,16.4,0.9,24.5,2.7c3.7,0.8,7.4,2,10.7,3.6
				c3.2,1.5,6.9,4,8.5,5.3c4.8,4.2,7.7,9.4,9.3,15.1c0.2,0.9,0.4,1.7,0.6,2.6c-0.1-1.2-0.1-1,0,0.5c0.1,1.7,0.1,3.4-0.1,5.1
				c0.2-2.2-0.8,2.3-0.9,2.8c0.5-1,0.4-0.8-0.3,0.5c-0.6,1.2-1.4,2.2-2.1,3.3c1.5-1.5,3-3,4.5-4.5c-33.2,14.3-71.2,10.2-106.4,13.1
				c-33.7,2.8-69.2,11.4-93,37.1c-11,11.8,6.7,29.5,17.7,17.7c16.8-18.1,40.4-25.1,64.8-28.7c26.8-3.9,56.3-1.9,83.9-5.5
				c15.9-2.1,30.8-5.8,45.6-12.1c5.7-2.5,9.2-12.4,10.4-17.9c1.5-6.9,1-13.9-0.6-20.7c-3.1-12.9-11.8-23.8-22.4-31.4
				c-11.9-8.5-27.2-11.3-41.4-12.8c-22.3-2.3-45.1-1.5-67.4-1.9c-24.6-0.5-49.2-0.9-73.8-1.4C4655.3,400,4655.3,425,4671.4,425.3
				L4671.4,425.3z"/>
		</g>
	</g>
	<g>
		<g>
			<path fill="#FFFFFF" d="M4852.3,511.8c-0.4-0.4,0,0.1,0.3,1c0.3,1.5,0.4,1.6,0.1,0.3c0,0.8,0,1.7,0,2.5c0.1-2.1-0.7,2.3-0.9,2.9
				c0.5-1,0.3-0.8-0.3,0.6c-0.6,1.2-1.3,2.3-2.1,3.4c0.8-1.1-2.1,1.9-2.5,2.3c0.9-0.7,0.5-0.6-0.9,0.4c-0.9,0.5-1.9,1-2.8,1.5
				c-3.1,1.6-7.6,2.3-10.9,2.6c-10.1,1.1-20.5,0.6-30.7,0.7c-11.9,0.1-23.8,0.2-35.7,0.3c-45.6,0.4-91.1,0.7-136.7,1.1
				c-16.1,0.1-16.1,25.1,0,25c51.5-0.4,103-0.8,154.5-1.2c12.3-0.1,24.6-0.1,37-0.3c12.2-0.1,23.9-1.6,35.1-6.6
				c9.9-4.4,16.5-13.3,20.2-23.1c4.1-10.8,1.2-22.4-5.9-31c-4.3-5.3-13.2-4.5-17.7,0C4847.2,499.3,4848,506.6,4852.3,511.8
				L4852.3,511.8z"/>
		</g>
	</g>
	<g>
		<g>
			<path fill="#FFFFFF" d="M6194.5,399.5c-0.1,26.3-0.2,52.7-0.3,79c0,13.2-0.1,26.3-0.1,39.5c0,11.6-0.9,23.5,0.5,35.1
				c1.4,11.9,5.9,22.7,16.6,29.1c10.6,6.3,24.1,3.9,35.7,3c26.5-2.2,52.9-4.5,79.4-6.7c4.1-0.3,9-2.1,10.8-6.2
				c12.6-28.5,1-56.4-9.3-83.6c-10.4-27.5-14.7-56.2-12.5-85.5c1-12.3,1.8-24.5-4.2-35.8c-6-11.3-19.1-16.1-31.2-14
				c-9.4,1.6-17.7,7.3-25.7,12.2c-2,1.2-4.1,2.4-6.2,3.6c-1,0.6-2.1,1.1-3.1,1.6c-0.3,0.1-3.7,1.6-1.2,0.6c-2,0.8-4.1,1.4-6.3,1.8
				c3-0.6-0.3-0.1-0.9-0.1c-0.7,0-1.4,0-2.1-0.1c1.6,0.2,1.6,0.2,0.2-0.1c-15.7-3.8-22.3,20.3-6.6,24.1c20,4.9,35.2-9,51.8-17.4
				c0.6-0.3,1.3-0.6,2-0.9c-2.6,1.2,0.5-0.1,0.9-0.2c0.9-0.3,1.9-0.5,2.9-0.7c-3.1,0.7-0.3,0.1,0.5,0.1c1.4,0.1,1.3,0-0.5-0.2
				c0.9,0.1,1.9,0.4,2.8,0.8c-2.8-1,0.1,0.3,0.6,0.7c-1.7-1.1,1.3,1.9-0.1,0c1.7,2.3,0.9,1.2,1.7,4c0.7,2.7,0.5,2.6,0.6,6
				c0.1,6-0.7,12-1.1,17.9c-1.9,28.1,2.4,57,11.8,83.6c4.3,12.2,9.5,24,13.1,36.4c3,10.5,5.1,22.6,0.5,32.8
				c3.6-2.1,7.2-4.1,10.8-6.2c-24.5,2.1-48.9,4.1-73.4,6.2c-9.2,0.8-21.2,3.3-29.3,0.9c-0.6-0.2-0.8-0.6-1.6-1.4
				c0.5,0.8,0.4,0.6-0.4-0.6c-1.8-2.9,0.2,1.4-0.9-1.9c-1.6-4.6-1.5-7-1.6-12.1c-0.5-23.9,0.1-48,0.2-71.9
				c0.1-24.4,0.2-48.7,0.2-73.1C6219.5,383.3,6194.5,383.3,6194.5,399.5L6194.5,399.5z"/>
		</g>
	</g>
	<g>
		<g>
			<path fill="#FFFFFF" d="M6260.8,531.9c16.1,0,16.1-25,0-25S6244.7,531.9,6260.8,531.9L6260.8,531.9z"/>
		</g>
	</g>
	<g>
		<g>
			<path fill="#FFFFFF" d="M1863.5,381.4c-1,33-0.7,66,0.7,98.9c0.3,7,0.5,14.2,2.6,21c2.6,8.1,8.2,14.3,15.5,18.6
				c6.1,3.6,13.4,5.7,20.1,7.8c7.5,2.4,15.1,4.3,22.8,5.9c61.1,12.9,124.2,3.7,184.8-7.4c7.2-1.3,14.5-2.7,21.7-4.1
				c5.6-1.1,8.9-6.8,9.2-12.1c1.8-32.9,0.1-65.7-4.3-98.3c-1-7.7-2.3-15.4-3.7-23c-1.4-7.4-4-14.7-9.7-20c-6-5.6-13.9-6.8-21.6-7.9
				c-8.5-1.2-17-2.5-25.5-3.7c-32.7-4.8-65.5-9.6-98.2-14.4c-23.4-3.4-48.8-6.8-71.5,2.1c-12.2,4.8-22.6,12.9-28.8,24.7
				c-3.2,6-1.6,13.5,4.5,17.1c5.7,3.3,13.9,1.5,17.1-4.5c0.6-1.1,1.2-2.2,1.9-3.3c0-0.1,2.4-3.3,0.9-1.4c1.5-1.9,3.3-3.5,5.1-5
				c-1.9,1.6,1.2-0.7,1.4-0.8c1-0.7,2.1-1.2,3.1-1.8c0.1-0.1,3.7-1.7,1.4-0.8c1.5-0.6,3.1-1.2,4.7-1.7c10.4-3.3,19.2-3.4,30.9-2.9
				c5.4,0.2,10.8,0.8,16.1,1.5c-2.8-0.4,3.3,0.5,2.5,0.4c2,0.3,3.9,0.6,5.9,0.9c4.6,0.7,9.2,1.3,13.8,2c16.4,2.4,32.7,4.8,49.1,7.2
				s32.7,4.8,49.1,7.2c3.9,0.6,7.9,1.1,11.8,1.7c2.5,0.4,6.2,0.5,8.4,1.4c1.8,0.8,1.5,1,2.1,2.9c1.2,3.7,1.7,7.7,2.4,11.6
				c5.5,31.4,7.5,63.5,6.7,95.4c-0.1,4.5-0.3,9.1-0.6,13.6c3.1-4,6.1-8,9.2-12.1c-57.9,11-118.1,22.5-177.2,14.2
				c-14.3-2-28.5-5.3-42.3-9.8c-5.2-1.7-10.6-3.3-14.1-6.8c-2.5-2.6-2.1-10.6-2.3-15.3c-1.5-33-1.6-66-0.7-98.9
				C1888.9,365.3,1863.9,365.3,1863.5,381.4L1863.5,381.4z"/>
		</g>
	</g>
	<g>
		<g>
			<path fill="#FFFFFF" d="M1984.6,555.7c-0.9-1.9,0.1,2.3,0-0.3c-0.1,1.5,0,1.7,0,0.4c-0.5,1.4-0.5,1.6,0,0.7
				c-1.1,2.6-2.7,4-4.6,5.1c1.1-0.3,0.8-0.2-1.1,0.4c-1.1,0.3-2.3,0.6-3.4,0.8c-1.7,0.3-3.8,0.1-5.5,0c-4.3-0.2-8.5-1.2-12.7-2.1
				c-1.1,8.2-2.2,16.4-3.3,24.6c11.9,0.2,23.8,0.4,35.7,0.6c16.1,0.3,16.1-24.7,0-25c-11.9-0.2-23.8-0.4-35.7-0.6
				c-14-0.3-17.2,21.5-3.3,24.6c14.5,3.2,31.1,5.9,44.2-3.1c12.7-8.6,18.5-24.6,11.3-38.7c-3.1-6.1-11.5-7.8-17.1-4.5
				C1982.9,542.2,1981.5,549.7,1984.6,555.7L1984.6,555.7z"/>
		</g>
	</g>
	<g>
		<g>
			<path fill="#FFFFFF" d="M2041.2,566.9c-10-4-20-7.9-30-11.9c-6.3-2.5-13.7,2.7-15.4,8.7c-2,7.1,2.4,12.9,8.7,15.4
				c10,4,20,7.9,30,11.9c6.3,2.5,13.7-2.7,15.4-8.7C2051.8,575.2,2047.5,569.4,2041.2,566.9L2041.2,566.9z"/>
		</g>
	</g>
	<g>
		<g>
			<path fill="#FFFFFF" d="M2073.9,306.5c0.5,3.3-2.3,7.6-3.9,10.4c-3.2,5.6-6.9,10.9-10.3,16.2c-6.8,10.5-13.5,21.1-20.3,31.6
				c-13.9,21.6-27.8,43.3-41.6,64.9c-3.7,5.7-1.2,13.8,4.5,17.1c6.1,3.6,13.4,1.2,17.1-4.5c14.6-22.7,29.2-45.5,43.8-68.2
				c7.5-11.7,14.9-23.3,22.4-35c7.9-12.4,14.8-23.9,12.5-39.2c-1-6.7-9.4-10.4-15.4-8.7C2075.5,293.1,2072.9,299.8,2073.9,306.5
				L2073.9,306.5z"/>
		</g>
	</g>
	<g>
		<g>
			<path fill="#FFFFFF" d="M1984.2,435.5c0,2.8-0.6,5.9-1.7,8.2c-1.9,4-3.2,5.4-6.4,8.4c-4.7,4.4-10.5,6.1-17.6,5.4
				c3.6,6.3,7.2,12.5,10.8,18.8c7.9-12.7,15.8-25.4,23.7-38c8.6-13.7-13.1-26.3-21.6-12.6c-7.9,12.7-15.8,25.4-23.7,38
				c-5.4,8.7,1.9,17.9,10.8,18.8c26.5,2.6,50.6-20.9,50.7-47C2009.3,419.4,1984.3,419.4,1984.2,435.5L1984.2,435.5z"/>
		</g>
	</g>
</g>
</svg>
