<?xml version="1.0" encoding="utf-8"?>
<!-- Generator: Adobe Illustrator 18.0.0, SVG Export Plug-In . SVG Version: 6.00 Build 0)  -->
<!DOCTYPE svg PUBLIC "-//W3C//DTD SVG 1.1//EN" "http://www.w3.org/Graphics/SVG/1.1/DTD/svg11.dtd">
<svg version="1.1" xmlns="http://www.w3.org/2000/svg" xmlns:xlink="http://www.w3.org/1999/xlink" x="0px" y="0px"
	 viewBox="0 0 1728 1440" enable-background="new 0 0 1728 1440" xml:space="preserve">
<g id="circle">
	<circle fill="#01CED1" cx="864" cy="720" r="592.7"/>
</g>
<g id="storage" display="none">
	
		<rect x="501.8" y="497" display="inline" fill="none" stroke="#FFFFFF" stroke-width="16" stroke-miterlimit="10" width="722.5" height="512.7"/>
	
		<line display="inline" fill="none" stroke="#FFFFFF" stroke-width="16" stroke-miterlimit="10" x1="539" y1="463.8" x2="1187" y2="463.8"/>
	
		<line display="inline" fill="none" stroke="#FFFFFF" stroke-width="16" stroke-miterlimit="10" x1="580.9" y1="430.1" x2="1157" y2="430.1"/>
</g>
<g id="deals">
	<g>
		<g>
			<path fill="#FFFFFF" d="M1060.1,473.8c-0.7-27.1-14-52.1-34.1-69.9c-22.2-19.8-51-28.8-80.2-31.4
				c-52.3-4.7-106.7,12.2-150.5,40.1c-21.6,13.7-41.2,30.7-57.9,50.1c-16.7,19.4-31.1,41.3-39.9,65.5c-8.3,23.1-10.3,49.5,0.4,72.1
				c12.6,26.6,42.2,33.9,68.9,36.5c49.2,4.8,98,6.8,145.7,16.3c45.6,9.1,90.1,24.7,124,55.8c36.4,33.4,54,80.5,54.2,128.9
				c0.2,49.4-18.7,97.1-50.1,135.1c-32,38.6-75.2,67.4-121.5,85c-50.2,19-106.5,25.5-158.4,10.5c-41.3-11.9-74.1-37.9-94.5-74.6
				c-5.1-9.2-8.1-16.3-11.3-26.2c-1.5-4.8-2.8-9.6-3.8-14.5c-1.1-5.3-1.6-8.5-2-12.8c-0.5-4.9-0.6-9.9-0.5-14.8
				c0-2.2,0.2-4.5,0.3-6.7c0.1-1.3,0.2-2.7,0.4-4c0,0.1,0.6-4.3,0.2-2c1.4-9.5,4.7-20.9,7.9-28.2c2.8-6.2,1.9-13.4-4.5-17.1
				c-5.4-3.2-14.3-1.7-17.1,4.5c-20.2,45.1-13.5,96,10.8,138.1c26.1,45.3,71,74.9,121.5,86.1c54.7,12.1,113.1,3.7,164.7-16.9
				c48.4-19.4,92.9-49.5,126.3-89.7c33.9-40.9,54.3-90.7,56.3-144c2-52.2-15.2-104.4-50.4-143.2c-32.6-36-78.3-56.6-124.7-68.4
				c-48.5-12.3-98.9-15.9-148.6-19.9c-22.5-1.8-50.9-0.4-67.2-18.1c-5.5-6-8.6-16.1-9.1-24.5c-0.8-11.9,1.1-20.9,4.7-32.5
				c6.6-21.3,20.9-42.4,35.8-59.6c16.2-18.9,34.8-34.5,55.6-47.4c38.6-23.9,83.6-36.9,128.9-34.6c23.1,1.2,47.7,8.1,65.4,22.5
				c16.9,13.7,28.5,33.3,29,54.2C1035.5,489.9,1060.5,489.9,1060.1,473.8L1060.1,473.8z"/>
		</g>
	</g>
	<g>
		<g>
			<path fill="#FFFFFF" d="M817.7,306.6c2.8,133.2,6.3,266.3,10.7,399.5c4.4,133.1,9.6,266.2,15.6,399.3c0.9,20,1.8,39.9,2.8,59.9
				c0.3,6.8,5.4,12.5,12.5,12.5c6.6,0,12.8-5.7,12.5-12.5c-6.3-133.1-11.7-266.2-16.4-399.3S847,499.7,844,366.5
				c-0.5-20-0.9-40-1.3-59.9C842.4,290.5,817.4,290.4,817.7,306.6L817.7,306.6z"/>
		</g>
	</g>
	<g>
		<g>
			<path fill="#FFFFFF" d="M908.7,300.4c6.9,132.7,11.8,265.4,14.7,398.3c2.8,132.8,3.5,265.7,2.2,398.5
				c-0.2,18.6-0.4,37.2-0.7,55.8c-0.2,16.1,24.8,16.1,25,0c1.9-132.8,1.7-265.7-0.5-398.5c-2.2-132.8-6.5-265.6-12.9-398.3
				c-0.9-18.6-1.8-37.2-2.8-55.7c-0.4-6.8-5.4-12.5-12.5-12.5C914.6,287.9,908.3,293.6,908.7,300.4L908.7,300.4z"/>
		</g>
	</g>
</g>
<g id="shopping" display="none">
	<g display="inline">
		<g>
			<path fill="#FFFFFF" d="M363.5,1113c28.8-9.5,52.2-28.9,72.3-51.1c20.7-22.9,39.1-48,57.4-72.7c37-50.1,71-102.3,102-156.2
				c62.3-108.2,112.3-223.6,149-343c9.1-29.7,17.4-59.7,24.8-90c3.6-14.8,6.8-29.7,10.3-44.6c0.3-1.4,0.7-2.8,1.2-4.2
				c-0.1,0.3,1.5-4,0.8-2.3c0.6-1.3,1.3-2.4,2-3.6c-1,1.6,1.8-1.3,0.1-0.1c2.6-1.8,0.1-0.3,1-0.4c1.6-0.1,2.6,0.3,4.1,0.7
				c4.7,1.1,9.3,2.5,14,3.7c67.6,17.7,136,32.2,204.9,43.6c34.9,5.8,69.9,10.7,105,14.9c17.3,2.1,34.7,3.9,52.1,5.6
				c8.3,0.8,16.7,1.6,25,2.3c7.6,0.7,14.3,0.7,21.1,2.5c-0.2-0.1,3.8,1.6,2.4,0.9c2.5,1.2-0.1-0.5,1.9,1.4c-0.4-0.4-0.6-2.2,0.3,1.3
				c0.1,0.5-0.2,3.1-0.2,3.7c-0.6,7.5-3.5,15.5-5.2,22.9c-3.7,16-7.5,31.9-11.4,47.8c-7.8,31.8-16.1,63.5-24.9,95
				c-35,126.3-77.4,250.4-126.8,371.8c-49.2,121-105.6,239-168.5,353.4c-17,31-34.6,61.7-52.6,92.2c-8.2,13.9,13.4,26.5,21.6,12.6
				c66.7-112.8,126.8-229.4,180.1-349.1c53.4-120.1,99.9-243.2,139.2-368.7c19.6-62.5,37.3-125.6,53.2-189.1
				c4-15.9,7.8-31.8,11.6-47.7c1.8-7.7,3.6-15.3,5.3-23c2-8.8,4.5-17.6,3.1-26.7c-2.8-17.3-19.4-23-34.6-24.7c-16.9-2-34-2.9-51-4.6
				c-69.1-6.9-137.8-17.2-206-30.5c-34.3-6.7-68.4-14.2-102.3-22.4c-16.9-4.1-33.7-8.5-50.6-12.9c-8.4-2.2-16.7-2.2-24.4,2.2
				c-6.9,3.9-10.7,11.2-13.5,18.2c-2.4,5.9-3.4,12.5-4.7,18.7c-1.8,7.9-3.6,15.8-5.5,23.6c-3.6,15.1-7.5,30.2-11.5,45.2
				c-8.1,30-17.1,59.8-26.9,89.4c-19.4,58.6-42.2,116.1-68.2,172.2c-52.1,112.4-116.8,219.3-193,317.1
				c-24.5,31.5-51.4,67.7-90.8,80.7c-6.5,2.1-10.6,8.6-8.7,15.4C349.9,1110.6,357,1115.2,363.5,1113L363.5,1113z"/>
		</g>
	</g>
	<g display="inline">
		<g>
			<path fill="#FFFFFF" d="M804.1,524.7c43.6,9,87,18.4,130.8,26.6c43.8,8.2,88.2,14.4,132.8,13.3c16.1-0.4,16.1-25.4,0-25
				c-43.1,1.1-85.8-4.9-128.1-12.8c-43.1-8.1-85.9-17.4-128.8-26.3c-6.7-1.4-13.5,1.8-15.4,8.7C793.6,515.6,797.4,523.3,804.1,524.7
				L804.1,524.7z"/>
		</g>
	</g>
	<g display="inline">
		<g>
			<path fill="#FFFFFF" d="M758.6,647.5c103.2,30.4,210.7,46.5,318.3,47.9c16.1,0.2,16.1-24.8,0-25c-105.5-1.4-210.4-17.3-311.6-47
				C749.7,618.9,743.2,643,758.6,647.5L758.6,647.5z"/>
		</g>
	</g>
	<g display="inline">
		<g>
			<path fill="#FFFFFF" d="M712.6,782.8c98.9,30.5,198.3,59,298.3,85.7c15.6,4.2,22.2-20,6.6-24.1c-100-26.7-199.4-55.3-298.3-85.7
				C703.8,753.9,697.2,778.1,712.6,782.8L712.6,782.8z"/>
		</g>
	</g>
	<g display="inline">
		<g>
			<path fill="#FFFFFF" d="M632.5,928.5c97.5,45.2,204.8,67.6,312.3,64.5c16.1-0.5,16.1-25.5,0-25c-102.9,3-206.2-17.8-299.7-61.1
				c-6.2-2.9-13.4-1.8-17.1,4.5C624.9,916.9,626.4,925.6,632.5,928.5L632.5,928.5z"/>
		</g>
	</g>
	<g display="inline">
		<g>
			<path fill="#FFFFFF" d="M556.6,1065.9c88.9,60.4,199.5,68.6,298.5,104c6.4,2.3,13.7-2.5,15.4-8.7c1.9-6.9-2.3-13.1-8.7-15.4
				c-96.9-34.7-205.5-42.4-292.5-101.5c-5.6-3.8-13.8-1.1-17.1,4.5C548.5,1055,550.9,1062.1,556.6,1065.9L556.6,1065.9z"/>
		</g>
	</g>
</g>
<g id="guides">
</g>
</svg>
